<svg aria-hidden="true" style="width:0;height:0;position:absolute;overflow:hidden" xmlns="http://www.w3.org/2000/svg"><defs><symbol id="icon-arrow-left" viewBox="0 0 32 32"><path d="M26.187 27.605 14.582 16 26.187 4.395 21.792 0l-16 16 16 16 4.395-4.395z"/></symbol><symbol id="icon-arrow-right" viewBox="0 0 32 32"><path d="M5.813 4.395 17.418 16 5.813 27.605 10.208 32l16-16-16-16-4.395 4.395z"/></symbol><symbol id="icon-close-cross" viewBox="0 0 32 32"><path fill="#fff" style="fill:var(--color1,#fff)" d="M19.525 16 31.488 4.035c.33-.33.512-.768.512-1.237s-.181-.909-.512-1.238L30.44.512A1.731 1.731 0 0 0 29.209 0h-.008c-.467 0-.907.182-1.237.512L15.999 12.477 4.034.512A1.729 1.729 0 0 0 2.804 0h-.005c-.47 0-.912.184-1.238.512L.511 1.56c-.316.317-.512.754-.512 1.238s.196.921.512 1.238l11.965 11.965L.511 27.966c-.33.33-.512.768-.512 1.237s.182.909.512 1.238l1.048 1.048c.33.33.77.512 1.238.512s.907-.182 1.237-.512l11.965-11.965 11.965 11.965c.33.33.768.512 1.237.512s.909-.182 1.238-.512l1.048-1.048c.33-.33.512-.768.512-1.238 0-.469-.182-.907-.512-1.237L19.524 16.001z"/></symbol><symbol id="icon-ellipse" viewBox="0 0 32 32"><path fill="#fff" style="fill:var(--color1,#fff)" d="M19.525 16 31.488 4.035c.33-.33.512-.768.512-1.237s-.181-.909-.512-1.238L30.44.512A1.731 1.731 0 0 0 29.209 0h-.008c-.467 0-.907.182-1.237.512L15.999 12.477 4.034.512A1.729 1.729 0 0 0 2.804 0h-.005c-.47 0-.912.184-1.238.512L.511 1.56c-.316.317-.512.754-.512 1.238s.196.921.512 1.238l11.965 11.965L.511 27.966c-.33.33-.512.768-.512 1.237s.182.909.512 1.238l1.048 1.048c.33.33.77.512 1.238.512s.907-.182 1.237-.512l11.965-11.965 11.965 11.965c.33.33.768.512 1.237.512s.909-.182 1.238-.512l1.048-1.048c.33-.33.512-.768.512-1.238 0-.469-.182-.907-.512-1.237L19.524 16.001z"/></symbol><symbol id="icon-Facebook" viewBox="0 0 20 32"><path fill="#fff" style="fill:var(--color1,#fff)" d="M6.116 17.639H2.244c-.626 0-.821-.235-.821-.821v-4.732c0-.626.235-.821.821-.821h3.872V7.823c0-1.564.274-3.051 1.056-4.42.821-1.408 1.995-2.347 3.481-2.894a8.705 8.705 0 0 1 3.012-.508h3.833c.548 0 .782.235.782.782v4.459c0 .548-.235.782-.782.782-1.056 0-2.112 0-3.168.039-1.056 0-1.604.508-1.604 1.604-.039 1.173 0 2.308 0 3.52h4.537c.626 0 .86.235.86.86v4.732c0 .626-.196.821-.86.821h-4.537v12.75c0 .665-.196.9-.9.9H6.937c-.587 0-.821-.235-.821-.821V17.64z"/></symbol><symbol id="icon-heart" viewBox="0 0 34 32"><path d="M24.93 2.555a8.536 8.536 0 0 0-7.311 4.357l-.022.043c-1.463-2.606-4.19-4.35-7.327-4.4h-.007c-4.835.217-8.672 4.19-8.672 9.059 0 .121.002.241.007.36l-.001-.017c0 6.064 6.381 12.685 11.733 17.174 1.145.967 2.637 1.554 4.266 1.554s3.122-.588 4.276-1.563l-.01.008c5.352-4.49 11.734-11.11 11.734-17.173a9.068 9.068 0 0 0-8.648-9.399l-.019-.001zM20.15 27.09c-.685.58-1.578.932-2.554.932s-1.869-.353-2.559-.937l.006.005C8.192 21.341 4.262 15.824 4.262 11.956a6.4 6.4 0 0 1 5.982-6.732l.018-.001c3.362.212 6.009 2.991 6.009 6.388 0 .122-.003.243-.01.363l.001-.017a1.334 1.334 0 1 0 2.668 0 6.4 6.4 0 0 1 5.982-6.733l.018-.001c3.362.212 6.009 2.991 6.009 6.388 0 .122-.003.243-.01.363l.001-.017c0 3.87-3.93 9.384-10.779 15.126v.006z"/></symbol><symbol id="icon-instagram" viewBox="0 0 34 32"><path fill="#fff" style="fill:var(--color1,#fff)" d="M24.501.002h-16a8.023 8.023 0 0 0-8 7.999v16.001c0 4.398 3.6 8 8 8h16c4.398 0 8-3.602 8-8v-16c0-4.4-3.602-8-8-8zm5.334 24a5.34 5.34 0 0 1-5.333 5.333h-16a5.34 5.34 0 0 1-5.333-5.333v-16a5.34 5.34 0 0 1 5.333-5.333h16a5.34 5.34 0 0 1 5.333 5.333v16z"/><path fill="#fff" style="fill:var(--color1,#fff)" d="M2.279 16.891C1.568 7.647 4.352 3.558 5.835 2.669l8-.889 12.444.889 2.667 1.778 1.778 3.556v14.222l-.889 5.333-1.778 1.778-4.444 1.778h-4.444l-8.889-.889c-1.483 0-4.622-.178-5.333-.889a7.84 7.84 0 0 0-.186-.176l-.006-.005c-.825-.766-1.65-1.532-2.475-12.263zm14.222-8.889a8 8 0 0 0 0 16 8 8 0 0 0 0-16zm0 13.333a5.333 5.333 0 1 1 0-10.666 5.333 5.333 0 1 1 0 10.666zM27.168 7.333a2 2 0 1 1-4 0 2 2 0 1 1 4 0z"/></symbol><symbol id="icon-menu" viewBox="0 0 32 32"><path fill="#fff" style="fill:var(--color1,#fff)" d="M29.187 3.813H10.312a2.817 2.817 0 0 0-2.813 2.811 2.814 2.814 0 0 0 2.813 2.811h18.875A2.816 2.816 0 0 0 32 6.626a2.816 2.816 0 0 0-2.813-2.813zm0 9.374H10.312A2.816 2.816 0 0 0 7.499 16a2.816 2.816 0 0 0 2.813 2.813h18.875A2.816 2.816 0 0 0 32 16a2.816 2.816 0 0 0-2.813-2.813zm0 9.376H10.312a2.817 2.817 0 0 0-2.813 2.811 2.816 2.816 0 0 0 2.813 2.813h18.875A2.817 2.817 0 0 0 32 25.376a2.817 2.817 0 0 0-2.813-2.811zM2.813 3.813A2.817 2.817 0 0 0 0 6.624a2.813 2.813 0 0 0 5.626 0 2.816 2.816 0 0 0-2.813-2.813zm0 9.374A2.816 2.816 0 0 0 0 16a2.815 2.815 0 0 0 2.813 2.813A2.816 2.816 0 0 0 5.626 16a2.816 2.816 0 0 0-2.813-2.813zm0 9.376A2.817 2.817 0 0 0 0 25.374a2.815 2.815 0 0 0 2.813 2.813 2.816 2.816 0 0 0 2.813-2.813 2.817 2.817 0 0 0-2.813-2.811z"/></symbol><symbol id="icon-mouse" viewBox="0 0 32 32"><path fill="#fff" style="fill:var(--color1,#fff)" d="M17.333 4V1.333a1.333 1.333 0 0 0-2.666 0V4a9.344 9.344 0 0 0-9.333 9.333v8.001c0 5.891 4.776 10.667 10.667 10.667s10.667-4.776 10.667-10.667v-8a9.344 9.344 0 0 0-9.333-9.333h-.001zM24 21.333a8 8 0 0 1-16 0v-8a6.676 6.676 0 0 1 6.666-6.667h2.667A6.674 6.674 0 0 1 24 13.332v8z"/><path fill="#fff" style="fill:var(--color1,#fff)" d="M16 9.333c-.736 0-1.333.597-1.333 1.333v2.667a1.333 1.333 0 0 0 2.666 0v-2.667c0-.736-.597-1.333-1.333-1.333z"/></symbol><symbol id="icon-qoutes" viewBox="0 0 40 32"><path fill="#bfbfbf" style="fill:var(--color2,#bfbfbf)" opacity=".08" d="M10.368 18.105H0V0h18.105v21.129C18.105 27.123 13.229 32 7.234 32H3.25v-7.737h3.985a3.137 3.137 0 0 0 3.133-3.134v-3.024zm11.141 0V0h18.105v21.129C39.614 27.123 34.737 32 28.743 32h-3.985v-7.737h3.985a3.138 3.138 0 0 0 3.134-3.134v-3.024H21.509z"/></symbol><symbol id="icon-read-more-arrow" viewBox="0 0 32 32"><path fill="#cf9164" style="fill:var(--color3,#cf9164)" d="M27.604 5.812 16 17.416 4.396 5.816 0 10.204l16 16 16-16-4.396-4.396z"/></symbol><symbol id="icon-shopping-cart" viewBox="0 0 32 32"><path d="M29.672 5.31a3.78 3.78 0 0 0-2.908-1.362H6.312l-.052-.443A3.798 3.798 0 0 0 2.493.153h-.28a1.265 1.265 0 1 0 0 2.53h.28c.646 0 1.179.485 1.255 1.111l.001.006 1.74 14.796c.382 3.161 3.048 5.586 6.281 5.586h13.208a1.265 1.265 0 0 0 0-2.53H11.771a3.795 3.795 0 0 1-3.557-2.503l-.008-.026H23.28a6.324 6.324 0 0 0 6.217-5.162l.006-.039.994-5.507a3.774 3.774 0 0 0-.828-3.111l.005.006zm-1.661 2.656-.994 5.507a3.801 3.801 0 0 1-3.734 3.121H7.801L6.612 6.476h20.153a1.265 1.265 0 0 1 1.244 1.498l.001-.008zM9.8 30.507a2.53 2.53 0 0 0 0-5.06 2.53 2.53 0 0 0 0 5.06zm12.646 0h.001a2.53 2.53 0 0 0 .001-5.06 2.53 2.53 0 0 0 0 5.06z"/></symbol><symbol id="icon-Twitter" viewBox="0 0 40 32"><path fill="#fff" style="fill:var(--color1,#fff)" d="M39.153 3.768a16.017 16.017 0 0 1-4.518 1.264l-.082.009A7.878 7.878 0 0 0 38.062.643l.015-.055a16.6 16.6 0 0 1-4.979 1.938l-.111.02a8.03 8.03 0 0 0-13.899 5.48v.001c0 .636.049 1.224.196 1.811-6.656-.294-12.529-3.524-16.493-8.369-2.839 5.09.343 9.299 2.447 10.718-1.272 0-2.545-.392-3.622-.979 0 3.964 2.79 7.243 6.411 7.979-.783.245-2.545.39-3.622.147 1.028 3.181 4.013 5.53 7.488 5.577-2.741 2.157-6.754 3.87-11.893 3.33 3.47 2.272 7.72 3.624 12.286 3.624h.049-.003c14.78 0 22.807-12.235 22.807-22.808 0-.343 0-.685-.049-1.028 1.664-1.224 3.034-2.643 4.062-4.258z"/></symbol><symbol id="icon-user" viewBox="0 0 32 32"><path d="m15.687 16.087.15.001a7.76 7.76 0 1 0-.158-15.52h.008a7.761 7.761 0 0 0-.008 15.52h.008zm0-12.934a5.175 5.175 0 0 1 0 10.35 5.175 5.175 0 0 1 0-10.35zm-.001 15.522c-6.426.007-11.633 5.215-11.641 11.64v.001a1.295 1.295 0 0 0 2.588.002v-.002a9.055 9.055 0 1 1 18.11 0 1.295 1.295 0 0 0 2.584.003v-.004c-.007-6.425-5.214-11.632-11.638-11.641h-.001z"/></symbol></defs></svg>