<svg aria-hidden="true" style="width:0;height:0;position:absolute;overflow:hidden" xmlns="http://www.w3.org/2000/svg"><defs><symbol id="icon-bold-close-cross" viewBox="0 0 32 32"><path fill="#fff" style="fill:var(--color1,#fff)" d="M10.72 16 .821 6.102c-.506-.507-.82-1.206-.82-1.979s.313-1.473.82-1.979L2.14.821C2.646.314 3.347 0 4.12 0S5.593.314 6.1.821l9.901 9.901L25.9.821c.507-.506 1.206-.82 1.979-.82s1.473.313 1.979.82L31.18 2.14c.507.507.82 1.207.82 1.98s-.314 1.473-.82 1.98l-9.901 9.902 9.899 9.899c.507.507.82 1.207.82 1.98s-.314 1.473-.82 1.98l-1.32 1.319c-.507.506-1.206.82-1.979.82s-1.473-.313-1.979-.82L16 21.281 6.101 31.18c-.507.507-1.207.82-1.98.82s-1.473-.314-1.98-.82L.822 29.861c-.507-.507-.82-1.207-.82-1.98s.314-1.473.82-1.98L10.721 16z"/></symbol><symbol id="icon-brilliant" viewBox="0 0 36 32"><path d="M17.703 27.226c.115.128.291.204.479.204s.364-.076.478-.204l12.727-14.243a.47.47 0 0 0 .065-.558l.001.002a.409.409 0 0 0-.038-.05h.005l-4.242-5.802a.63.63 0 0 0-.487-.231l-.026.001h.001v-.017l-16.969.017-.026-.001a.63.63 0 0 0-.485.227l-.001.001-4.243 5.803h.005a.425.425 0 0 0-.037.047l-.001.002a.466.466 0 0 0 .067.556l12.727 14.245zm1.583-19.841h6.276l-3.138 4.292-3.138-4.292zm2.034 4.747h-6.276l3.138-4.292 3.138 4.292zm-7.381-.455-3.138-4.292h6.276l-3.138 4.292zm-7.245 1.51h6.78l3.591 11.605L6.694 13.187zm12.627 11.58 1.951-6.147c.08-.278-.11-.56-.427-.636s-.646.081-.742.355l-1.914 6.031-3.46-11.183h6.909l-.748 2.505a.484.484 0 0 0 .15.523l.001.001c.157.137.387.189.6.135s.375-.205.423-.394l.829-2.769h6.776l-10.348 11.58zm10.483-12.635h-6.276l3.138-4.292 3.138 4.292zM9.697 7.84l3.138 4.292H6.559L9.697 7.84zM.606 16.353h1.818c.335 0 .607-.236.607-.528s-.271-.527-.607-.527H.606c-.335 0-.606.236-.606.528s.271.527.606.527zM33.94 16.353h1.818c.335 0 .606-.236.606-.528s-.271-.527-.606-.527H33.94c-.335 0-.607.236-.607.528s.271.527.607.527zM18.788 31.122v-1.583c0-.291-.271-.527-.607-.527s-.606.236-.606.527v1.583c0 .291.271.527.606.527s.607-.236.607-.527zM18.182 2.638c.335 0 .607-.236.607-.528V.527c0-.291-.272-.527-.607-.527s-.606.236-.606.527V2.11c0 .291.271.528.606.528zM6.611 25.15l-1.286 1.12a.487.487 0 0 0-.176.52l-.001-.003a.571.571 0 0 0 .439.382.66.66 0 0 0 .595-.155h-.001l1.286-1.119a.481.481 0 0 0-.007-.739l-.001-.001a.668.668 0 0 0-.851-.006l.001-.001h.001zM29.324 6.655h.006c.162 0 .31-.059.424-.156l-.001.001 1.286-1.119a.483.483 0 0 0 .176-.521l.001.003a.571.571 0 0 0-.439-.382.66.66 0 0 0-.595.155h.001l-1.285 1.119a.478.478 0 0 0-.131.577l-.001-.003c.094.197.315.326.56.326h-.001zM30.609 27.169a.615.615 0 0 0 .56-.326.476.476 0 0 0-.13-.573l-.001-.001-1.286-1.12a.669.669 0 0 0-.85.008l.001-.001a.482.482 0 0 0-.008.738l.001.001 1.286 1.119a.652.652 0 0 0 .423.155h.005zM6.611 6.5a.67.67 0 0 0 .851-.007l-.001.001a.479.479 0 0 0 .008-.738l-.001-.001-1.286-1.119a.663.663 0 0 0-.6-.153l.005-.001a.575.575 0 0 0-.439.382.487.487 0 0 0 .175.517l.001.001 1.286 1.12z"/></symbol><symbol id="icon-brown-quotes" viewBox="0 0 32 32"><path d="M13.125 5.688h-.937c-5.369 0-9.795 4.126-10.27 9.374h11.208v13.127H.001V16.001c0-.315.012-.628.036-.937C.517 8.78 5.785 3.813 12.189 3.813h.937v1.875zm18.875 0h-.937c-5.37 0-9.795 4.126-10.271 9.374H32v13.127H18.875V16.001c0-.315.011-.628.036-.937.48-6.284 5.747-11.25 12.151-11.25H32v1.875z"/></symbol><symbol id="icon-car-truck" viewBox="0 0 59 32"><path d="M44.502 25.999h1.35l.012-.065c.476-2.341 2.517-4.078 4.965-4.078a5.061 5.061 0 0 1 4.971 4.108l.005.032h1.424v-4.895a3.88 3.88 0 0 0-.502-1.91l.01.019-4.997-8.959a.492.492 0 0 0-.43-.252h-6.809v16zM42.656 9.034V1.846H12.102v2.879h5.44a.923.923 0 1 1 0 1.846H6.276a.923.923 0 1 1 0-1.846h3.982V1.676A1.678 1.678 0 0 1 11.934 0h30.892a1.678 1.678 0 0 1 1.676 1.676v6.476H51.312c.873 0 1.634.478 2.036 1.187l.006.012 4.997 8.96c.474.853.724 1.813.724 2.789v5.157a1.588 1.588 0 0 1-1.584 1.584h-1.686c-.453 2.369-2.509 4.135-4.978 4.135a5.036 5.036 0 0 1-2.825-.861l.018.011a5.073 5.073 0 0 1-2.161-3.251l-.005-.032h-2.276a.812.812 0 0 1-.086-.004h.004-14.362c-.454 2.369-2.51 4.135-4.979 4.135a5.046 5.046 0 0 1-2.823-.859l.018.011a5.075 5.075 0 0 1-2.162-3.256l-.005-.032h-8.004a.923.923 0 0 1-.923-.923v-6.176H3.111a.923.923 0 1 1 0-1.846h11.716a.923.923 0 1 1 0 1.846h-2.725v5.253h7.081l.012-.062c.477-2.339 2.518-4.075 4.964-4.075a5.063 5.063 0 0 1 4.971 4.105l.005.032h13.52V9.073l.001-.044v.002zm11.387 17.883v-.025a3.217 3.217 0 0 0-6.427-.089v.008a.93.93 0 0 1-.001.222v-.004c.029.846.382 1.605.938 2.16a3.216 3.216 0 0 0 5.489-2.247v-.025zm-33.098.114c.032.845.384 1.602.938 2.158a3.215 3.215 0 1 0-.938-2.393v.006a.811.811 0 0 1-.001.233v-.005zm-8.843-12.333V9.423a.923.923 0 1 0-1.846 0v5.275H7.815a.923.923 0 1 0 0 1.846h16.348a.923.923 0 1 0 0-1.846H12.101zM7.307 11.67H.923a.923.923 0 1 1 0-1.846h6.384a.923.923 0 1 1 0 1.846z"/></symbol><symbol id="icon-checked" viewBox="0 0 32 32"><path fill="#4b7159" style="fill:var(--color2,#4b7159)" d="M27.52 3.2 11.2 19.68l-6.72-6.72L0 17.44 11.2 28.8 32 7.84 27.52 3.2z"/></symbol><symbol id="icon-checked-checkbox" viewBox="0 0 32 32"><path d="M32 16c0 8.837-7.163 16-16 16S0 24.837 0 16 7.163 0 16 0s16 7.163 16 16z"/><path fill="none" stroke="#fff" style="stroke:var(--color1,#fff)" stroke-width="3.048" d="M27.429 16c0 6.312-5.117 11.429-11.429 11.429S4.571 22.312 4.571 16 9.688 4.571 16 4.571 27.429 9.688 27.429 16z"/></symbol><symbol id="icon-credit-card" viewBox="0 0 32 32"><path fill="#a1a1a1" style="fill:var(--color3,#a1a1a1)" d="M28.5 5.001H3.503A3.504 3.504 0 0 0 .001 8.498v15.001c0 1.929 1.57 3.5 3.5 3.5h24.997A3.503 3.503 0 0 0 32 23.497V8.501a3.504 3.504 0 0 0-3.5-3.499zM3.502 6.999h24.996c.828 0 1.5.674 1.5 1.5v2H2v-2C2 7.672 2.674 7 3.5 7zm24.996 18.002H3.502a1.502 1.502 0 0 1-1.5-1.5V12.498h28v11.001a1.502 1.502 0 0 1-1.5 1.5z"/><path fill="#a1a1a1" style="fill:var(--color3,#a1a1a1)" d="M7.001 22H6a1 1 0 0 1-1.001-1.001V20c0-.551.448-1.001 1.001-1.001h1.001A1 1 0 0 1 8 20v1.001A1 1 0 0 1 6.999 22z"/></symbol><symbol id="icon-download" viewBox="0 0 32 32"><path d="M30.402 27.202h-28.8a1.6 1.6 0 1 0 0 3.2h28.8a1.6 1.6 0 1 0 0-3.2zM15.998 0a1.6 1.6 0 0 0-1.6 1.6v16.946l-5.264-5.28a1.607 1.607 0 0 0-2.274 2.272l8 8a1.6 1.6 0 0 0 2.272 0l8-8a1.608 1.608 0 1 0-2.271-2.273l-.001.001-5.26 5.28V1.6A1.6 1.6 0 0 0 16 0z"/></symbol><symbol id="icon-exit" viewBox="0 0 32 32"><path d="M20.052 23.236h2.498v4.999a3.752 3.752 0 0 1-3.747 3.748H3.749a3.752 3.752 0 0 1-3.748-3.747V3.749A3.752 3.752 0 0 1 3.748.001h15.054a3.752 3.752 0 0 1 3.748 3.747v4.999h-2.496V3.749c0-.69-.56-1.25-1.25-1.25H3.748c-.69.001-1.249.56-1.25 1.25v24.487c0 .688.562 1.248 1.25 1.248h15.054a1.25 1.25 0 0 0 1.25-1.248v-5.001zm6.058-13.135-1.767 1.767 2.875 2.873h-16.16v2.5h16.16l-2.875 2.873 1.767 1.767 5.89-5.89-5.89-5.89z"/></symbol><symbol id="icon-eye" viewBox="0 0 32 32"><path d="M.075 16.4c1.459 3.025 3.651 5.497 6.353 7.251l.069.042c2.68 1.74 5.957 2.775 9.477 2.775h.029-.002c3.381 0 6.668-.96 9.504-2.779a17.802 17.802 0 0 0 6.324-7.073l.046-.104a1.103 1.103 0 0 0 .015-1.002l.003.007c-1.462-2.989-3.64-5.431-6.319-7.167l-.069-.042c-2.681-1.743-5.96-2.779-9.482-2.779h-.024H16c-3.383 0-6.668.96-9.504 2.78a17.793 17.793 0 0 0-6.34 7.105l-.046.104a1.102 1.102 0 0 0-.033.889l-.003-.008zM16 7.748c5.705 0 11.004 3.221 13.65 8.252-2.649 4.93-7.761 8.23-13.647 8.252H16c-5.888-.022-11.001-3.322-13.609-8.17l-.041-.083c2.649-4.93 7.761-8.23 13.647-8.252H16z"/><path d="M16 20.868a4.872 4.872 0 0 0 4.868-4.867 4.873 4.873 0 0 0-4.867-4.868A4.873 4.873 0 0 0 11.135 16 4.873 4.873 0 0 0 16 20.868zm0-7.517c1.461 0 2.649 1.188 2.649 2.649S17.463 18.649 16 18.649c-1.46 0-2.649-1.188-2.649-2.649s1.191-2.649 2.649-2.649z"/></symbol><symbol id="icon-full-heart" viewBox="0 0 31 32"><path d="M18.461 4.55a8.164 8.164 0 0 1 4.113-1.177h.007c4.679.21 8.393 4.054 8.393 8.766 0 .117-.002.233-.007.349l.001-.017c0 5.867-6.175 12.275-11.355 16.619-1.108.936-2.552 1.504-4.129 1.504s-3.021-.569-4.139-1.512l.01.008C6.176 24.745 0 18.338 0 12.471a8.774 8.774 0 0 1 8.368-9.095l.019-.001a8.258 8.258 0 0 1 7.075 4.216l.021.041a8.33 8.33 0 0 1 2.94-3.062l.037-.021z"/></symbol><symbol id="icon-line" viewBox="0 0 125 32"><path stroke-width="1.333" d="m.159.685 123.725 30.393"/></symbol><symbol id="icon-palms-flexibility" viewBox="0 0 27 32"><path d="m11.101 1.998 1.226-.176.552-1.1a.555.555 0 0 1 .5-.308M11.1 1.998l.503 3.028a.417.417 0 0 0 .163.41l.001.001a.424.424 0 0 0 .447.032l-.002.001.063.123 1.102-.572 1.102.571a.56.56 0 0 0 .591-.045l-.002.001a.555.555 0 0 0 .221-.545L15.08 3.8l.884-.849a.556.556 0 0 0-.306-.953h-.003l-1.228-.177-.549-1.098a.559.559 0 0 0-.499-.31h-.002M11.1 1.997a.556.556 0 0 0-.309.952l.885.85L11.467 5v.001L11.1 1.997zM13.379.414zm1.104 4.334-.177-1.016.136-.024a.237.237 0 0 1 .069-.21l-.028 1.25zm0 0-.929-.482a.385.385 0 0 0-.35.001l.002-.001-.93.482.177-1.015v-.001l-.136-.024m2.166 1.04-2.236-1.25a.235.235 0 0 1 .068.21m1.527-1.378-.464-.929-.466.93a.378.378 0 0 1-.283.204v-.001l1.214-.204zm-1.526 1.378zm2.844-1.025-.744.716-.45-1.13c.035.069.1.118.178.129h.001l-.019.136 1.034.149zm-3.563 0-.126-.121-.173.025.127.121.173-.025zM13.3 1.247l.077-.154.077.154H13.3zM11.448 15.57v.138h-.414a.28.28 0 0 1-.276-.285v-1.87c-.001-.887.529-1.683 1.332-2.001m-.642 4.017h.138v-1.474c0-.157.124-.285.276-.285s.276.127.276.285v1.474h.138m-.828 0h-.414a.142.142 0 0 1-.138-.142v-1.874a2.005 2.005 0 0 1 1.177-1.844m-.625 3.86v-1.474c0-.23.182-.423.414-.423s.414.193.414.423v1.474m0 0v.138h2.483v-.138m-2.483 0h2.483m0 0h.138v-1.474c0-.157.124-.285.276-.285s.276.127.276.285v1.474h.138m-.828 0v-1.474c0-.23.182-.423.414-.423s.414.193.414.423v1.474m-.001 0v.138H16a.28.28 0 0 0 .276-.284v-1.87c.001-.887-.529-1.683-1.332-2.001m.642 4.017H16a.142.142 0 0 0 .138-.146v-1.87a2.005 2.005 0 0 0-1.177-1.844m-.018-.157a2.406 2.406 0 0 1-2.859-.004l.007.005m2.852-.001.082.111-.055.04-.009.006m-.018-.157-.05.128.068.029m-2.871-.157.051.128a1.3 1.3 0 0 0-.079.033l.011-.005m.018-.156-.082.111.064.045m0 .001c.403.281.904.449 1.444.449s1.04-.168 1.452-.455l-.008.005m.64-.619a2.865 2.865 0 0 1 1.364 2.463v1.87a.979.979 0 0 1-.966.991h-4.966a.979.979 0 0 1-.966-.991v-1.87h.138l5.394-2.463zm0 0a2.755 2.755 0 0 0-.275-3.585c-.464-.461-1.104-.746-1.81-.746s-1.346.285-1.81.746a2.755 2.755 0 0 0-.275 3.585h4.17zm-2.084-3.48c.986 0 1.793.825 1.793 1.852s-.807 1.853-1.793 1.853-1.793-.825-1.793-1.852c.001-1.026.807-1.851 1.793-1.853z"/><path d="M26.243 11.119a1.25 1.25 0 0 0-1.027.052l.007-.003a1.235 1.235 0 0 0-.634.749l-.294.988a3.664 3.664 0 0 1-1.199 1.852l-.006.005a3.68 3.68 0 0 0-.737.789 3.627 3.627 0 0 1-1.146 1.058l-.017.009-.221.126a1.406 1.406 0 0 0-.869-.299h-.02c-.474 0-.893.237-1.144.6l-.003.005-1.492 2.157c-.66.184-2.949.958-3.924 2.937-.975-1.978-3.264-2.753-3.924-2.937l-1.487-2.151a1.394 1.394 0 0 0-1.152-.61h-.013.001-.008c-.329 0-.631.112-.871.3l.003-.002-.217-.123a3.633 3.633 0 0 1-1.164-1.062l-.008-.012a3.7 3.7 0 0 0-.727-.779l-.007-.006a3.658 3.658 0 0 1-1.199-1.832l-.006-.026-.294-.987a1.24 1.24 0 0 0-.625-.745l-.007-.003a1.249 1.249 0 0 0-1.029-.046l.009-.003a1.247 1.247 0 0 0-.791 1.159v1.631c.001.581.145 1.129.4 1.609L.392 15.5l.826 1.599c.187.357.417.663.689.926l.001.001 2.415 2.332c1.694 1.818 4.079 4.741 4.079 5.553a4.227 4.227 0 0 1-.615 1.655l.01-.017a1.32 1.32 0 0 0 .041 1.316l-.003-.006c.243.396.674.657 1.166.657H11.718c.519.006.996-.283 1.231-.745.236-.49.426-1 .57-1.524.143.524.335 1.034.57 1.524.231.446.689.746 1.217.746H18.038c.492 0 .923-.26 1.163-.651l.003-.006c.243-.4.258-.899.038-1.311a4.185 4.185 0 0 1-.603-1.615l-.003-.023c0-.811 2.385-3.734 4.063-5.535l2.433-2.349a3.59 3.59 0 0 0 .678-.907l.009-.02.823-1.595a3.402 3.402 0 0 0 .393-1.593v-1.634c0-.524-.324-.972-.783-1.155l-.008-.003zM12.14 28.366a.469.469 0 0 1-.414.25H8.999a.465.465 0 0 1-.394-.219l-.001-.002a.42.42 0 0 1-.01-.429l-.001.002a4.757 4.757 0 0 0 .707-2.036l.002-.021c0-1.456-3.6-5.393-4.338-6.185l-2.433-2.348a2.68 2.68 0 0 1-.509-.677l-.007-.015-.824-1.6a2.512 2.512 0 0 1-.29-1.174v-1.631c0-.19.154-.343.343-.343h.005c.056 0 .111.013.162.038a.33.33 0 0 1 .172.199l.294.986a4.563 4.563 0 0 0 1.503 2.303l.008.006c.212.169.397.367.551.59.384.549.872.999 1.438 1.329l.021.012.183.105c-.025.093-.04.2-.041.31v.001c.002.151.028.301.077.444.109.305.212.634.297.949.22.808.638 1.5 1.2 2.046l.001.001a.357.357 0 0 0 .037.031l2.356 1.826a.451.451 0 1 0 .554-.712l-.001-.001-2.337-1.81a3.531 3.531 0 0 1-.933-1.593l-.006-.025a12.696 12.696 0 0 0-.344-1.094l.029.09a.417.417 0 0 1 .047-.393l-.001.001c.004-.006.004-.011.008-.017l.019-.025a.533.533 0 0 1 .817.026l.001.001 1.586 2.294c.065.094.164.16.276.185.158.034 3.846.874 3.846 4.066v.014c0 1.539-.341 2.998-.952 4.306l.026-.063h-.002zm13.994-14.454c-.001.43-.108.836-.297 1.191l.007-.014-.824 1.598a2.649 2.649 0 0 1-.516.692l-2.447 2.366c-.721.774-4.321 4.711-4.321 6.167a4.8 4.8 0 0 0 .72 2.077l-.012-.02a.418.418 0 0 1-.012.428l.001-.002a.465.465 0 0 1-.395.221h-.014.001-2.714a.468.468 0 0 1-.413-.247l-.001-.003a10.046 10.046 0 0 1-.925-4.244v-.014.001c0-3.193 3.687-4.033 3.845-4.067a.459.459 0 0 0 .274-.183l.001-.001 1.59-2.298a.517.517 0 0 1 .814-.024l.001.001.018.025c.005.008.004.011.008.017a.416.416 0 0 1 .049.385l.001-.003a15.01 15.01 0 0 0-.318 1.016 3.548 3.548 0 0 1-.94 1.615l-2.337 1.81a.45.45 0 0 0 .554.712l-.001.001 2.356-1.826c.014-.01.026-.021.038-.032a4.45 4.45 0 0 0 1.193-2.013l.007-.031c.086-.316.189-.646.301-.961.047-.14.072-.286.074-.433a1.343 1.343 0 0 0-.044-.32l.002.009.188-.108a4.522 4.522 0 0 0 1.444-1.32l.01-.014c.154-.224.341-.425.554-.594a4.553 4.553 0 0 0 1.502-2.275l.008-.032.294-.988a.331.331 0 0 1 .17-.198l.002-.001a.367.367 0 0 1 .305-.01l-.002-.001a.34.34 0 0 1 .206.323l-.001 1.625zM19.437 7.032l-.828.966a.534.534 0 0 0-.112.474l-.001-.004c.038.169.151.3.295.345a.38.38 0 0 0 .403-.131l.001-.001.828-.966a.54.54 0 0 0-.006-.678l.001.001a.373.373 0 0 0-.579-.006v.001zM19.31 9.793c0 .228.216.414.483.414h.966c.266 0 .483-.185.483-.414s-.216-.414-.483-.414h-.966c-.266 0-.483.185-.483.414zM8.137 8.828c.168 0 .319-.118.383-.299a.542.542 0 0 0-.091-.528l.001.001-.83-.969a.375.375 0 0 0-.582.005l-.001.001a.542.542 0 0 0-.004.679l-.001-.001.83.969c.07.085.175.14.293.142zM5.793 9.793c0 .228.216.414.483.414h.966c.266 0 .483-.185.483-.414s-.216-.414-.483-.414h-.966c-.266 0-.483.185-.483.414z"/></symbol><symbol id="icon-search" viewBox="0 0 32 32"><path d="M12.879 25.749c2.859 0 5.638-.954 7.893-2.709l8.514 8.512a1.601 1.601 0 0 0 2.264-2.264l-8.512-8.512a12.79 12.79 0 0 0 2.709-7.9c0-7.109-5.763-12.873-12.873-12.873S.001 5.766.001 12.876c0 7.109 5.763 12.873 12.873 12.873h.005zm-6.84-19.71a9.641 9.641 0 0 1 6.839-2.832c5.342 0 9.673 4.331 9.673 9.673s-4.331 9.673-9.673 9.673a9.639 9.639 0 0 1-6.838-2.832 9.61 9.61 0 0 1-2.848-6.841A9.606 9.606 0 0 1 6.04 6.04l.001-.001z"/></symbol><symbol id="icon-target-efficiency" viewBox="0 0 31 32"><path d="m30.48.153-2.245 2.245V.523a.523.523 0 0 0-.893-.37L24.205 3.29a.522.522 0 0 0-.154.37v2.921l-1.227 1.227a13.488 13.488 0 0 0-7.597-3.526l-.064-.006V3.137a1.569 1.569 0 0 0 0-3.138h-3.137a1.569 1.569 0 0 0 0 3.138v1.139a13.508 13.508 0 0 0-6.875 2.856l.027-.021-.899-.9a1.637 1.637 0 0 0-2.247 0l.001-.001a1.588 1.588 0 0 0 0 2.252l.897.897c-4.489 5.677-3.743 13.875 1.695 18.65s13.665 4.45 18.712-.737c5.047-5.187 5.145-13.419.225-18.725L24.79 7.32h2.921a.526.526 0 0 0 .37-.153l3.137-3.137a.524.524 0 0 0-.37-.893h-1.875L31.218.893a.523.523 0 1 0-.74-.74zm-5.382 3.723 2.091-2.091v1.658l-2.091 2.092V3.876zM11.503 1.569c0-.289.234-.523.523-.523h3.137a.523.523 0 1 1 0 1.046h-3.137a.523.523 0 0 1-.523-.523zm1.569 1.568h1.046v1.059c-.174-.006-.348-.013-.523-.013s-.349.006-.523.013V3.138zM2.775 7.725a.54.54 0 0 1 .003-.776.519.519 0 0 1 .366-.151h.014-.001.006c.148 0 .281.06.378.157l.84.836c-.269.249-.52.5-.761.76l-.008.009-.837-.836zm23.369 10.053v.017c0 6.941-5.627 12.567-12.567 12.567-5.11 0-9.508-3.05-11.472-7.429l-.032-.08a12.373 12.373 0 0 1-1.062-5.057c0-6.941 5.627-12.567 12.567-12.567 3.286 0 6.278 1.261 8.517 3.326l-.009-.008-.739.739c-4.622-4.22-11.77-3.977-16.094.548S1.01 21.51 5.436 25.936s11.576 4.507 16.102.183 4.769-11.471.548-16.094l.739-.739a12.45 12.45 0 0 1 3.319 8.483v.008zm-10.98 0a1.569 1.569 0 1 1-1.569-1.569c.232.001.462.055.671.157l-1.042 1.042a.524.524 0 1 0 .74.74l1.042-1.041c.102.21.156.439.157.672zm-.13-2.179a2.623 2.623 0 1 0 .734.73l.006.009 1.494-1.495a4.718 4.718 0 1 1-.73-.732l-.009-.007-1.495 1.493zm2.238-2.238a5.761 5.761 0 1 0 .732.731l.007.009 1.478-1.478A7.87 7.87 0 0 1 8.001 23.371a7.871 7.871 0 0 1 10.748-11.488l-1.478 1.479zm2.218-2.217c-3.606-3.206-9.108-2.965-12.418.546s-3.229 9.018.182 12.43c3.412 3.412 8.919 3.492 12.43.182s3.752-8.813.546-12.418l1.109-1.109c3.815 4.23 3.561 10.731-.572 14.65s-10.639 3.827-14.66-.208a10.499 10.499 0 0 1 14.496-15.181l-1.111 1.109zm10.097-6.961-2.091 2.091h-1.659l2.092-2.091h1.658z"/></symbol><symbol id="icon-trash" viewBox="0 0 32 32"><path fill="#a1a1a1" style="fill:var(--color3,#a1a1a1)" d="M3.001 7.001h2v20.48a3.53 3.53 0 0 0 3.52 3.52h15A3.532 3.532 0 0 0 27 27.482V7.001h2.002a1 1 0 1 0 0-2.002h-7.001V3a2 2 0 0 0-1.948-1.999H12a2 2 0 0 0-2 2v2H2.999a1 1 0 1 0 .002 1.998h-.003zm8.999-4h8v2h-8V2.999zm-2 4h15.001v20.48a1.52 1.52 0 0 1-1.52 1.518H8.48a1.52 1.52 0 0 1-1.479-1.519V7.001H10z"/><path fill="#a1a1a1" style="fill:var(--color3,#a1a1a1)" d="M12.681 25.001a.999.999 0 0 0 .999-.999V12l.001-.042a1 1 0 1 0-2.001.044V12v12.002c0 .552.447.999.999.999h.002zm6.638 0h.002a.999.999 0 0 0 .999-.999V12a1.002 1.002 0 0 0-2-.002V24c0 .552.447 1 .999 1.001z"/></symbol><symbol id="icon-unchecked-checkbox" viewBox="0 0 32 32"><path fill="#a1a1a1" style="fill:var(--color3,#a1a1a1)" d="M32 16c0 8.837-7.163 16-16 16S0 24.837 0 16 7.163 0 16 0s16 7.163 16 16z"/><path fill="#fff" style="fill:var(--color1,#fff);stroke:var(--color1,#fff)" stroke="#fff" stroke-width="3.048" d="M27.429 16c0 6.312-5.117 11.429-11.429 11.429S4.571 22.312 4.571 16 9.688 4.571 16 4.571 27.429 9.688 27.429 16z"/></symbol></defs></svg>