<svg width="21" height="21" viewBox="0 0 21 21" fill="none" xmlns="http://www.w3.org/2000/svg">
<g clip-path="url(#clip0_1704_2113)">
<path d="M19.2685 3.48469C19.035 3.20453 18.7427 2.97921 18.4124 2.82473C18.0821 2.67025 17.7218 2.5904 17.3571 2.59084H3.93858L3.90373 2.29953C3.83239 1.69402 3.54136 1.13573 3.08581 0.730506C2.63026 0.325283 2.04186 0.101297 1.43216 0.101013L1.24791 0.101013C1.0278 0.101013 0.816698 0.188453 0.661053 0.344098C0.505409 0.499742 0.417969 0.710841 0.417969 0.930956C0.417969 1.15107 0.505409 1.36217 0.661053 1.51781C0.816698 1.67346 1.0278 1.7609 1.24791 1.7609H1.43216C1.63544 1.76093 1.83164 1.83556 1.98355 1.97064C2.13546 2.10572 2.23251 2.29185 2.25629 2.49374L3.39829 12.2041C3.51685 13.2139 4.00206 14.1451 4.76181 14.8209C5.52157 15.4966 6.50299 15.8699 7.51979 15.8699H16.1869C16.407 15.8699 16.6181 15.7825 16.7737 15.6268C16.9294 15.4712 17.0168 15.2601 17.0168 15.04C17.0168 14.8199 16.9294 14.6088 16.7737 14.4531C16.6181 14.2975 16.407 14.21 16.1869 14.21H7.51979C7.0061 14.2086 6.50543 14.0483 6.08642 13.7511C5.66741 13.454 5.35058 13.0345 5.17935 12.5502H15.0723C16.0452 12.5502 16.9872 12.2084 17.7337 11.5845C18.4803 10.9605 18.9838 10.0941 19.1564 9.1366L19.8079 5.52303C19.8729 5.1645 19.8583 4.79605 19.7651 4.4438C19.6719 4.09155 19.5023 3.76411 19.2685 3.48469V3.48469ZM18.1787 5.2284L17.5264 8.84197C17.4228 9.41712 17.1201 9.93749 16.6714 10.312C16.2228 10.6864 15.6567 10.8912 15.0723 10.8903H4.91543L4.13445 4.25073H17.3571C17.479 4.25 17.5996 4.27614 17.7103 4.32729C17.8209 4.37845 17.919 4.45335 17.9974 4.54669C18.0759 4.64003 18.1328 4.7495 18.1641 4.86732C18.1954 4.98514 18.2004 5.10843 18.1787 5.2284V5.2284Z" fill="black"/>
<path d="M6.22727 20.0196C7.14399 20.0196 7.88715 19.2765 7.88715 18.3597C7.88715 17.443 7.14399 16.6999 6.22727 16.6999C5.31054 16.6999 4.56738 17.443 4.56738 18.3597C4.56738 19.2765 5.31054 20.0196 6.22727 20.0196Z" fill="black"/>
<path d="M14.5271 20.0196C15.4438 20.0196 16.187 19.2765 16.187 18.3597C16.187 17.443 15.4438 16.6999 14.5271 16.6999C13.6103 16.6999 12.8672 17.443 12.8672 18.3597C12.8672 19.2765 13.6103 20.0196 14.5271 20.0196Z" fill="black"/>
</g>
<defs>
<clipPath id="clip0_1704_2113">
<rect width="19.9186" height="19.9186" fill="white" transform="translate(0.417969 0.101013)"/>
</clipPath>
</defs>
</svg>
