<svg width="23" height="22" viewBox="0 0 23 22" fill="none" xmlns="http://www.w3.org/2000/svg">
<g clip-path="url(#clip0_1704_2140)">
<path d="M11.5805 11.0603C12.6357 11.0603 13.6672 10.7474 14.5446 10.1612C15.422 9.5749 16.1059 8.74163 16.5097 7.76673C16.9135 6.79182 17.0192 5.71906 16.8133 4.6841C16.6074 3.64915 16.0993 2.69848 15.3531 1.95232C14.607 1.20616 13.6563 0.698018 12.6213 0.492153C11.5864 0.286287 10.5136 0.391945 9.53871 0.795764C8.56381 1.19958 7.73054 1.88343 7.14428 2.76082C6.55803 3.63821 6.24512 4.66975 6.24512 5.72498C6.24653 7.13957 6.8091 8.49581 7.80936 9.49608C8.80963 10.4963 10.1659 11.0589 11.5805 11.0603ZM11.5805 2.16808C12.2839 2.16808 12.9716 2.37669 13.5566 2.76753C14.1415 3.15836 14.5974 3.71388 14.8666 4.36381C15.1358 5.01375 15.2063 5.72892 15.069 6.41889C14.9318 7.10886 14.593 7.74264 14.0956 8.24008C13.5981 8.73752 12.9643 9.07629 12.2744 9.21353C11.5844 9.35077 10.8692 9.28033 10.2193 9.01112C9.56936 8.74191 9.01385 8.28601 8.62301 7.70108C8.23217 7.11615 8.02357 6.42847 8.02357 5.72498C8.02357 4.78163 8.39831 3.87692 9.06536 3.20987C9.7324 2.54283 10.6371 2.16808 11.5805 2.16808V2.16808Z" fill="#0B3F37"/>
<path d="M11.5811 12.8388C9.45933 12.8411 7.4251 13.6851 5.92475 15.1854C4.42441 16.6858 3.58048 18.72 3.57812 20.8418C3.57813 21.0776 3.67181 21.3038 3.83857 21.4706C4.00533 21.6373 4.23151 21.731 4.46735 21.731C4.70319 21.731 4.92936 21.6373 5.09612 21.4706C5.26289 21.3038 5.35657 21.0776 5.35657 20.8418C5.35657 19.1909 6.01237 17.6077 7.17971 16.4404C8.34704 15.273 9.93028 14.6172 11.5811 14.6172C13.232 14.6172 14.8152 15.273 15.9826 16.4404C17.1499 17.6077 17.8057 19.1909 17.8057 20.8418C17.8057 21.0776 17.8994 21.3038 18.0662 21.4706C18.2329 21.6373 18.4591 21.731 18.6949 21.731C18.9308 21.731 19.1569 21.6373 19.3237 21.4706C19.4905 21.3038 19.5842 21.0776 19.5842 20.8418C19.5818 18.72 18.7379 16.6858 17.2375 15.1854C15.7372 13.6851 13.7029 12.8411 11.5811 12.8388V12.8388Z" fill="#0B3F37"/>
</g>
<defs>
<clipPath id="clip0_1704_2140">
<rect width="21.3414" height="21.3414" fill="white" transform="translate(0.910156 0.389633)"/>
</clipPath>
</defs>
</svg>
