<svg aria-hidden="true" style="position: absolute; width: 0; height: 0; overflow: hidden;" version="1.1" xmlns="http://www.w3.org/2000/svg" xmlns:xlink="http://www.w3.org/1999/xlink">
<defs>
<symbol id="icon-arrow-left" viewBox="0 0 32 32">
<path d="M26.187 27.605l-11.605-11.605 11.605-11.605-4.395-4.395-16 16 16 16 4.395-4.395z"></path>
</symbol>
<symbol id="icon-arrow-right" viewBox="0 0 32 32">
<path d="M5.813 4.395l11.605 11.605-11.605 11.605 4.395 4.395 16-16-16-16-4.395 4.395z"></path>
</symbol>
<symbol id="icon-close-cross" viewBox="0 0 32 32">
<path fill="#fff" style="fill: var(--color1, #fff)" d="M19.525 16l11.963-11.965c0.33-0.33 0.512-0.768 0.512-1.237s-0.181-0.909-0.512-1.238l-1.048-1.048c-0.314-0.316-0.75-0.512-1.231-0.512-0.003 0-0.005 0-0.008 0h0c-0.467 0-0.907 0.182-1.237 0.512l-11.965 11.965-11.965-11.965c-0.314-0.316-0.749-0.512-1.23-0.512-0.002 0-0.003 0-0.005 0h0c-0.47 0-0.912 0.184-1.238 0.512l-1.050 1.048c-0.316 0.317-0.512 0.754-0.512 1.238s0.196 0.921 0.512 1.238l11.965 11.965-11.965 11.965c-0.33 0.33-0.512 0.768-0.512 1.237s0.182 0.909 0.512 1.238l1.048 1.048c0.33 0.33 0.77 0.512 1.238 0.512s0.907-0.182 1.237-0.512l11.965-11.965 11.965 11.965c0.33 0.33 0.768 0.512 1.237 0.512s0.909-0.182 1.238-0.512l1.048-1.048c0.33-0.33 0.512-0.768 0.512-1.238 0-0.469-0.182-0.907-0.512-1.237l-11.963-11.965z"></path>
</symbol>
<symbol id="icon-ellipse" viewBox="0 0 32 32">
<path fill="#fff" style="fill: var(--color1, #fff)" d="M19.525 16l11.963-11.965c0.33-0.33 0.512-0.768 0.512-1.237s-0.181-0.909-0.512-1.238l-1.048-1.048c-0.314-0.316-0.75-0.512-1.231-0.512-0.003 0-0.005 0-0.008 0h0c-0.467 0-0.907 0.182-1.237 0.512l-11.965 11.965-11.965-11.965c-0.314-0.316-0.749-0.512-1.23-0.512-0.002 0-0.003 0-0.005 0h0c-0.47 0-0.912 0.184-1.238 0.512l-1.050 1.048c-0.316 0.317-0.512 0.754-0.512 1.238s0.196 0.921 0.512 1.238l11.965 11.965-11.965 11.965c-0.33 0.33-0.512 0.768-0.512 1.237s0.182 0.909 0.512 1.238l1.048 1.048c0.33 0.33 0.77 0.512 1.238 0.512s0.907-0.182 1.237-0.512l11.965-11.965 11.965 11.965c0.33 0.33 0.768 0.512 1.237 0.512s0.909-0.182 1.238-0.512l1.048-1.048c0.33-0.33 0.512-0.768 0.512-1.238 0-0.469-0.182-0.907-0.512-1.237l-11.963-11.965z"></path>
</symbol>
<symbol id="icon-Facebook" viewBox="0 0 20 32">
<path fill="#fff" style="fill: var(--color1, #fff)" d="M6.116 17.639h-3.872c-0.626 0-0.821-0.235-0.821-0.821v-4.732c0-0.626 0.235-0.821 0.821-0.821h3.872v-3.442c0-1.564 0.274-3.051 1.056-4.42 0.821-1.408 1.995-2.347 3.481-2.894 0.978-0.352 1.956-0.508 3.012-0.508h3.833c0.548 0 0.782 0.235 0.782 0.782v4.459c0 0.548-0.235 0.782-0.782 0.782-1.056 0-2.112 0-3.168 0.039-1.056 0-1.604 0.508-1.604 1.604-0.039 1.173 0 2.308 0 3.52h4.537c0.626 0 0.86 0.235 0.86 0.86v4.732c0 0.626-0.196 0.821-0.86 0.821h-4.537v12.75c0 0.665-0.196 0.9-0.9 0.9h-4.889c-0.587 0-0.821-0.235-0.821-0.821v-12.789z"></path>
</symbol>
<symbol id="icon-heart" viewBox="0 0 34 32">
<path d="M24.93 2.555c-3.144 0.051-5.87 1.794-7.311 4.357l-0.022 0.043c-1.463-2.606-4.19-4.35-7.327-4.4l-0.007-0c-4.835 0.217-8.672 4.19-8.672 9.059 0 0.121 0.002 0.241 0.007 0.36l-0.001-0.017c0 6.064 6.381 12.685 11.733 17.174 1.145 0.967 2.637 1.554 4.266 1.554s3.122-0.588 4.276-1.563l-0.010 0.008c5.352-4.49 11.734-11.11 11.734-17.173 0.004-0.102 0.006-0.221 0.006-0.341 0-4.869-3.838-8.842-8.654-9.058l-0.019-0.001zM20.15 27.090c-0.685 0.58-1.578 0.932-2.554 0.932s-1.869-0.353-2.559-0.937l0.006 0.005c-6.851-5.749-10.781-11.266-10.781-15.134-0.006-0.103-0.009-0.223-0.009-0.345 0-3.397 2.647-6.176 5.991-6.387l0.018-0.001c3.362 0.212 6.009 2.991 6.009 6.388 0 0.122-0.003 0.243-0.010 0.363l0.001-0.017c0 0.737 0.597 1.334 1.334 1.334s1.334-0.597 1.334-1.334v0c-0.006-0.103-0.009-0.225-0.009-0.346 0-3.397 2.647-6.176 5.991-6.387l0.018-0.001c3.362 0.212 6.009 2.991 6.009 6.388 0 0.122-0.003 0.243-0.010 0.363l0.001-0.017c0 3.87-3.93 9.384-10.779 15.126v0.006z"></path>
</symbol>
<symbol id="icon-instagram" viewBox="0 0 34 32">
<path fill="#fff" style="fill: var(--color1, #fff)" d="M24.501 0.002h-16c-4.413 0.013-7.987 3.587-8 7.999v16.001c0 4.398 3.6 8 8 8h16c4.398 0 8-3.602 8-8v-16c0-4.4-3.602-8-8-8zM29.835 24.002c0 2.94-2.393 5.333-5.333 5.333h-16c-2.94 0-5.333-2.393-5.333-5.333v-16c0-2.94 2.393-5.333 5.333-5.333h16c2.94 0 5.333 2.393 5.333 5.333v16z"></path>
<path fill="#fff" style="fill: var(--color1, #fff)" d="M2.279 16.891c-0.711-9.244 2.073-13.333 3.556-14.222l8-0.889 12.444 0.889 2.667 1.778 1.778 3.556v14.222l-0.889 5.333-1.778 1.778-4.444 1.778h-4.444l-8.889-0.889c-1.483 0-4.622-0.178-5.333-0.889-0.060-0.059-0.123-0.118-0.186-0.176l-0.006-0.005c-0.825-0.766-1.65-1.532-2.475-12.263zM16.501 8.002c-4.418 0-8 3.582-8 8s3.582 8 8 8v0c4.418 0 8-3.582 8-8s-3.582-8-8-8v0zM16.501 21.335c-2.946 0-5.333-2.388-5.333-5.333s2.388-5.333 5.333-5.333v0c2.946 0 5.333 2.388 5.333 5.333s-2.388 5.333-5.333 5.333v0zM27.168 7.333c0 1.105-0.895 2-2 2s-2-0.895-2-2v0c0-1.105 0.895-2 2-2s2 0.895 2 2v0z"></path>
</symbol>
<symbol id="icon-menu" viewBox="0 0 32 32">
<path fill="#fff" style="fill: var(--color1, #fff)" d="M29.187 3.813h-18.875c-1.552 0.002-2.81 1.259-2.813 2.811v0c0 1.552 1.262 2.811 2.813 2.811h18.875c1.552-0.002 2.809-1.258 2.813-2.809v-0c-0.002-1.553-1.26-2.811-2.813-2.813h-0zM29.187 13.187h-18.875c-1.553 0.002-2.811 1.26-2.813 2.813v0c0 1.552 1.262 2.813 2.813 2.813h18.875c1.553-0.002 2.811-1.26 2.813-2.813v-0c-0.002-1.553-1.26-2.811-2.813-2.813h-0zM29.187 22.563h-18.875c-1.552 0.002-2.81 1.259-2.813 2.811v0c0 1.552 1.262 2.813 2.813 2.813h18.875c1.552-0.002 2.81-1.259 2.813-2.811v-0c-0.003-1.552-1.261-2.809-2.813-2.811h-0zM2.813 3.813c-1.552 0.002-2.81 1.259-2.813 2.811v0c0 1.552 1.261 2.811 2.813 2.811 1.552-0.002 2.81-1.259 2.813-2.811v-0c-0.002-1.553-1.26-2.811-2.813-2.813h-0zM2.813 13.187c-1.553 0.002-2.811 1.26-2.813 2.813v0c0 1.552 1.261 2.813 2.813 2.813 1.553-0.002 2.811-1.26 2.813-2.813v-0c-0.002-1.553-1.26-2.811-2.813-2.813h-0zM2.813 22.563c-1.552 0.002-2.81 1.259-2.813 2.811v0c0 1.552 1.261 2.813 2.813 2.813 1.553-0.002 2.811-1.26 2.813-2.813v-0c-0.003-1.552-1.261-2.809-2.813-2.811h-0z"></path>
</symbol>
<symbol id="icon-mouse-squares" viewBox="0 0 15 32">
<path fill="#000" style="fill: var(--color2, #000)" d="M0.787 0h3.148v3.148h-3.148z"></path>
<path fill="#fff" style="fill: var(--color1, #fff)" d="M6.557 0h3.148v3.148h-3.148zM12.328 0h3.148v3.148h-3.148z"></path>
<path fill="#fff" style="fill: var(--color1, #fff)" d="M2.557 27.869v-0.393c0-0 0-0 0-0.001 0-0.108-0.088-0.196-0.196-0.196-0 0-0 0-0.001 0h0c-0 0-0 0-0 0-0.108 0-0.196 0.088-0.196 0.196 0 0 0 0 0 0v0 0.393c-0.76 0.001-1.376 0.617-1.377 1.377v1.18c0 0.869 0.705 1.573 1.574 1.574h0c0.869 0 1.574-0.705 1.574-1.574v0-1.18c-0.001-0.76-0.617-1.376-1.377-1.377h-0zM3.541 30.426c-0.014 0.641-0.537 1.156-1.18 1.156s-1.166-0.514-1.18-1.154l-0-0.001v-1.18c0.001-0.543 0.441-0.983 0.984-0.984h0.393c0.543 0.001 0.983 0.441 0.984 0.984v1.18z"></path>
<path fill="#fff" style="fill: var(--color1, #fff)" d="M2.361 28.656c-0 0-0 0-0 0-0.108 0-0.196 0.088-0.196 0.196 0 0 0 0 0 0v0 0.393c0 0 0 0 0 0.001 0 0.108 0.088 0.196 0.196 0.196 0 0 0 0 0.001 0h-0c0 0 0 0 0 0 0.108 0 0.196-0.088 0.196-0.196 0-0 0-0 0-0v0-0.393c0-0 0-0 0-0.001 0-0.108-0.088-0.196-0.196-0.196-0 0-0 0-0.001 0h0z"></path>
<path fill="none" stroke="#fff" style="stroke: var(--color1, #fff)" stroke-linejoin="miter" stroke-linecap="butt" stroke-miterlimit="4" stroke-width="0.2623" d="M2.361 25.967v-8.393"></path>
</symbol>
<symbol id="icon-qoutes" viewBox="0 0 40 32">
<path fill="#bfbfbf" style="fill: var(--color3, #bfbfbf)" opacity="0.08" d="M10.368 18.105h-10.368v-18.105h18.105v21.129c0 5.994-4.876 10.871-10.871 10.871h-3.984v-7.737h3.985c1.728 0 3.133-1.406 3.133-3.134v-3.024zM21.509 18.105v-18.105h18.105v21.129c0 5.994-4.877 10.871-10.871 10.871h-3.985v-7.737h3.985c1.728 0 3.134-1.406 3.134-3.134v-3.024h-10.368z"></path>
</symbol>
<symbol id="icon-read-more-arrow" viewBox="0 0 32 32">
<path fill="#cf9164" style="fill: var(--color4, #cf9164)" d="M27.604 5.812l-11.604 11.604-11.604-11.6-4.396 4.388 16 16 16-16-4.396-4.396z"></path>
</symbol>
<symbol id="icon-shopping-cart" viewBox="0 0 32 32">
<path d="M29.672 5.31c-0.699-0.835-1.742-1.362-2.908-1.362-0.001 0-0.003 0-0.004 0h-20.448l-0.052-0.443c-0.229-1.896-1.828-3.352-3.767-3.352h-0.28c-0.699 0-1.265 0.566-1.265 1.265s0.566 1.265 1.265 1.265v0h0.28c0.646 0 1.179 0.485 1.255 1.111l0.001 0.006 1.74 14.796c0.382 3.161 3.048 5.586 6.281 5.586 0 0 0 0 0.001 0h13.207c0.698 0 1.265-0.566 1.265-1.265s-0.566-1.265-1.265-1.265h-13.207c-1.638-0.005-3.030-1.047-3.557-2.503l-0.008-0.026h15.074c3.096-0 5.672-2.224 6.217-5.162l0.006-0.039 0.994-5.507c0.038-0.203 0.060-0.436 0.060-0.674 0-0.928-0.334-1.778-0.888-2.437l0.005 0.006zM28.011 7.966l-0.994 5.507c-0.331 1.786-1.877 3.121-3.734 3.121-0.002 0-0.004 0-0.006 0h-15.476l-1.189-10.118h20.145c0.002-0 0.005-0 0.008-0 0.698 0 1.265 0.566 1.265 1.265 0 0.080-0.007 0.158-0.021 0.233l0.001-0.008zM9.8 30.507c1.397 0 2.53-1.133 2.53-2.53s-1.133-2.53-2.53-2.53v0c-1.397 0-2.53 1.133-2.53 2.53s1.133 2.53 2.53 2.53v0zM22.446 30.507c0 0 0 0 0.001 0 1.397 0 2.53-1.133 2.53-2.53s-1.132-2.529-2.529-2.53h-0c-1.397 0-2.53 1.133-2.53 2.53s1.133 2.53 2.53 2.53v0z"></path>
</symbol>
<symbol id="icon-Twitter" viewBox="0 0 40 32">
<path fill="#fff" style="fill: var(--color1, #fff)" d="M39.153 3.768c-1.338 0.607-2.891 1.054-4.518 1.264l-0.082 0.009c1.673-0.994 2.925-2.548 3.509-4.398l0.015-0.055c-1.466 0.873-3.169 1.55-4.979 1.938l-0.111 0.020c-1.47-1.571-3.555-2.55-5.869-2.55-4.435 0-8.030 3.595-8.030 8.030 0 0 0 0.001 0 0.001v-0c0 0.636 0.049 1.224 0.196 1.811-6.656-0.294-12.529-3.524-16.493-8.369-2.839 5.090 0.343 9.299 2.447 10.718-1.272 0-2.545-0.392-3.622-0.979 0 3.964 2.79 7.243 6.411 7.979-0.783 0.245-2.545 0.39-3.622 0.147 1.028 3.181 4.013 5.53 7.488 5.577-2.741 2.157-6.754 3.87-11.893 3.33 3.47 2.272 7.72 3.624 12.286 3.624 0.017 0 0.033-0 0.049-0h-0.003c14.78 0 22.807-12.235 22.807-22.808 0-0.343 0-0.685-0.049-1.028 1.664-1.224 3.034-2.643 4.062-4.258z"></path>
</symbol>
<symbol id="icon-user" viewBox="0 0 32 32">
<path d="M15.687 16.087c0.045 0.001 0.097 0.001 0.15 0.001 4.287 0 7.761-3.475 7.761-7.761s-3.475-7.761-7.761-7.761c-0.053 0-0.106 0.001-0.158 0.002l0.008-0c-4.221 0.084-7.611 3.526-7.611 7.76s3.39 7.676 7.603 7.76l0.008 0zM15.687 3.153c2.858 0 5.175 2.317 5.175 5.175s-2.317 5.175-5.175 5.175v0c-2.858 0-5.175-2.317-5.175-5.175s2.317-5.175 5.175-5.175v0zM15.686 18.675c-6.426 0.007-11.633 5.215-11.641 11.64v0.001c0.024 0.696 0.594 1.251 1.294 1.251s1.27-0.555 1.294-1.249l0-0.002c0-5.001 4.054-9.055 9.055-9.055s9.055 4.054 9.055 9.055v0c0.041 0.682 0.604 1.219 1.292 1.219s1.252-0.538 1.292-1.216l0-0.004c-0.007-6.425-5.214-11.632-11.638-11.641h-0.001z"></path>
</symbol>
</defs>
</svg>
