<svg aria-hidden="true" style="position: absolute; width: 0; height: 0; overflow: hidden;" version="1.1" xmlns="http://www.w3.org/2000/svg" xmlns:xlink="http://www.w3.org/1999/xlink">
<defs>
<symbol id="icon-bold-close-cross" viewBox="0 0 32 32">
<path fill="#fff" style="fill: var(--color1, #fff)" d="M10.72 16l-9.899-9.898c-0.506-0.507-0.82-1.206-0.82-1.979s0.313-1.473 0.82-1.979v0l1.319-1.323c0.506-0.507 1.207-0.821 1.98-0.821s1.473 0.314 1.98 0.821l9.901 9.901 9.899-9.901c0.507-0.506 1.206-0.82 1.979-0.82s1.473 0.313 1.979 0.82v0l1.322 1.319c0.507 0.507 0.82 1.207 0.82 1.98s-0.314 1.473-0.82 1.98l-9.901 9.902 9.899 9.899c0.507 0.507 0.82 1.207 0.82 1.98s-0.314 1.473-0.82 1.98l-1.32 1.319c-0.507 0.506-1.206 0.82-1.979 0.82s-1.473-0.313-1.979-0.82l-9.9-9.899-9.899 9.899c-0.507 0.507-1.207 0.82-1.98 0.82s-1.473-0.314-1.98-0.82l-1.319-1.319c-0.507-0.507-0.82-1.207-0.82-1.98s0.314-1.473 0.82-1.98l9.899-9.901z"></path>
</symbol>
<symbol id="icon-brilliant" viewBox="0 0 36 32">
<path d="M17.703 27.226c0.115 0.128 0.291 0.204 0.479 0.204s0.364-0.076 0.478-0.204l12.727-14.243c0.079-0.084 0.127-0.198 0.127-0.323 0-0.085-0.023-0.165-0.062-0.235l0.001 0.002c-0.012-0.019-0.025-0.035-0.038-0.050l0 0h0.005l-4.242-5.802c-0.116-0.141-0.291-0.231-0.487-0.231-0.009 0-0.017 0-0.026 0.001l0.001-0v-0.017l-16.969 0.017c-0.008-0-0.017-0.001-0.026-0.001-0.195 0-0.369 0.088-0.485 0.227l-0.001 0.001-4.243 5.803h0.005c-0.013 0.015-0.026 0.030-0.037 0.047l-0.001 0.002c-0.039 0.067-0.061 0.147-0.061 0.233 0 0.125 0.048 0.239 0.128 0.323l-0-0 12.727 14.245zM19.286 7.385h6.276l-3.138 4.292-3.138-4.292zM21.32 12.132h-6.276l3.138-4.292 3.138 4.292zM13.939 11.677l-3.138-4.292h6.276l-3.138 4.292zM6.694 13.187h6.78l3.591 11.605-10.371-11.605zM19.321 24.767l1.951-6.147c0.080-0.278-0.11-0.56-0.427-0.636s-0.646 0.081-0.742 0.355l-1.914 6.031-3.46-11.183h6.909l-0.748 2.505c-0.016 0.045-0.024 0.097-0.024 0.152 0 0.149 0.068 0.282 0.174 0.371l0.001 0.001c0.157 0.137 0.387 0.189 0.6 0.135s0.375-0.205 0.423-0.394l0.829-2.769h6.776l-10.348 11.58zM29.804 12.132h-6.276l3.138-4.292 3.138 4.292zM9.697 7.84l3.138 4.292h-6.276l3.138-4.292z"></path>
<path d="M0.606 16.353h1.818c0.335 0 0.607-0.236 0.607-0.528s-0.271-0.527-0.607-0.527h-1.818c-0.335 0-0.606 0.236-0.606 0.528s0.271 0.527 0.606 0.527z"></path>
<path d="M33.94 16.353h1.818c0.335 0 0.606-0.236 0.606-0.528s-0.271-0.527-0.606-0.527h-1.818c-0.335 0-0.607 0.236-0.607 0.528s0.271 0.527 0.607 0.527z"></path>
<path d="M18.788 31.122v-1.583c0-0.291-0.271-0.527-0.607-0.527s-0.606 0.236-0.606 0.527v1.583c0 0.291 0.271 0.527 0.606 0.527s0.607-0.236 0.607-0.527z"></path>
<path d="M18.182 2.638c0.335 0 0.607-0.236 0.607-0.528v-1.583c0-0.291-0.272-0.527-0.607-0.527s-0.606 0.236-0.606 0.527v1.583c0 0.291 0.271 0.528 0.606 0.528z"></path>
<path d="M6.611 25.15l-1.286 1.12c-0.118 0.090-0.194 0.23-0.194 0.388 0 0.046 0.006 0.090 0.018 0.132l-0.001-0.003c0.055 0.188 0.223 0.335 0.439 0.382 0.045 0.011 0.096 0.017 0.149 0.017 0.172 0 0.328-0.065 0.446-0.172l-0.001 0 1.286-1.119c0.104-0.089 0.17-0.22 0.17-0.367 0-0.15-0.069-0.284-0.177-0.372l-0.001-0.001c-0.115-0.096-0.265-0.155-0.429-0.155-0.16 0-0.307 0.056-0.422 0.149l0.001-0.001h0.001z"></path>
<path d="M29.324 6.655c0.002 0 0.004 0 0.006 0 0.162 0 0.31-0.059 0.424-0.156l-0.001 0.001 1.286-1.119c0.119-0.089 0.194-0.23 0.194-0.388 0-0.046-0.006-0.091-0.018-0.133l0.001 0.003c-0.055-0.188-0.223-0.335-0.439-0.382-0.045-0.011-0.096-0.017-0.149-0.017-0.172 0-0.328 0.065-0.446 0.172l0.001-0-1.285 1.119c-0.108 0.088-0.177 0.222-0.177 0.371 0 0.074 0.017 0.144 0.046 0.206l-0.001-0.003c0.094 0.197 0.315 0.326 0.56 0.326h-0.001z"></path>
<path d="M30.609 27.169c0.245 0 0.465-0.129 0.56-0.326 0.029-0.060 0.045-0.13 0.045-0.203 0-0.149-0.068-0.283-0.175-0.37l-0.001-0.001-1.286-1.12c-0.114-0.092-0.261-0.148-0.42-0.148-0.164 0-0.314 0.059-0.43 0.156l0.001-0.001c-0.108 0.089-0.177 0.223-0.177 0.372 0 0.147 0.066 0.278 0.169 0.366l0.001 0.001 1.286 1.119c0.113 0.096 0.261 0.155 0.423 0.155 0.002 0 0.003 0 0.005-0h-0z"></path>
<path d="M6.611 6.5c0.114 0.092 0.261 0.148 0.421 0.148 0.163 0 0.313-0.058 0.43-0.155l-0.001 0.001c0.109-0.089 0.177-0.223 0.177-0.372 0-0.147-0.066-0.278-0.169-0.366l-0.001-0.001-1.286-1.119c-0.117-0.106-0.274-0.171-0.446-0.171-0.053 0-0.104 0.006-0.154 0.018l0.005-0.001c-0.215 0.048-0.384 0.194-0.439 0.382-0.011 0.039-0.018 0.083-0.018 0.129 0 0.158 0.076 0.299 0.193 0.388l0.001 0.001 1.286 1.12z"></path>
</symbol>
<symbol id="icon-brown-quotes" viewBox="0 0 32 32">
<path d="M13.125 5.688h-0.937c-5.369 0-9.795 4.126-10.27 9.374h11.208v13.127h-13.125v-12.188c0-0.315 0.012-0.628 0.036-0.937 0.48-6.284 5.748-11.251 12.152-11.251h0.937v1.875zM32 5.688h-0.937c-5.37 0-9.795 4.126-10.271 9.374h11.208v13.127h-13.125v-12.188c0-0.315 0.011-0.628 0.036-0.937 0.48-6.284 5.747-11.25 12.151-11.25h0.938v1.875z"></path>
</symbol>
<symbol id="icon-car-truck" viewBox="0 0 59 32">
<path d="M44.502 25.999h1.35l0.012-0.065c0.476-2.341 2.517-4.078 4.965-4.078 2.469 0 4.526 1.768 4.971 4.108l0.005 0.032h1.424v-4.895c-0.001-0.694-0.183-1.346-0.502-1.91l0.010 0.019-4.997-8.959c-0.086-0.152-0.246-0.252-0.43-0.252h-6.809v16zM42.656 9.034v-7.188h-30.554v2.879h5.44c0.51 0 0.923 0.413 0.923 0.923s-0.413 0.923-0.923 0.923v0h-11.266c-0.51 0-0.923-0.413-0.923-0.923s0.413-0.923 0.923-0.923v0h3.982v-3.049c0.001-0.925 0.751-1.675 1.676-1.676h30.892c0.925 0.001 1.675 0.751 1.676 1.676v6.476h6.809c0 0 0.001 0 0.001 0 0.873 0 1.634 0.478 2.036 1.187l0.006 0.012 4.997 8.96c0.474 0.853 0.724 1.813 0.724 2.789v5.157c-0.002 0.874-0.71 1.582-1.584 1.584h-1.686c-0.453 2.369-2.509 4.135-4.978 4.135-1.046 0-2.018-0.317-2.825-0.861l0.018 0.011c-1.113-0.75-1.903-1.906-2.161-3.251l-0.005-0.032h-2.276c-0.029 0-0.058-0.001-0.086-0.004l0.004 0h-14.362c-0.454 2.369-2.51 4.135-4.979 4.135-1.045 0-2.016-0.317-2.823-0.859l0.018 0.011c-1.114-0.751-1.905-1.909-2.162-3.256l-0.005-0.032h-8.004c-0.51 0-0.923-0.413-0.923-0.923v0-6.176h-7.145c-0.51 0-0.923-0.413-0.923-0.923s0.413-0.923 0.923-0.923v0h11.716c0.51 0 0.923 0.413 0.923 0.923s-0.413 0.923-0.923 0.923v0h-2.725v5.253h7.081l0.012-0.062c0.477-2.339 2.518-4.075 4.964-4.075 2.468 0 4.524 1.767 4.971 4.105l0.005 0.032h13.52v-16.919c0-0.015 0.001-0.030 0.001-0.044l-0 0.002zM54.043 26.917v-0.025c-0.044-1.742-1.466-3.138-3.215-3.138-1.72 0-3.125 1.35-3.212 3.049l-0 0.008c0.004 0.033 0.006 0.071 0.006 0.109s-0.002 0.076-0.007 0.113l0-0.004c0.029 0.846 0.382 1.605 0.938 2.16l0 0c0.582 0.582 1.386 0.941 2.273 0.941 1.767 0 3.201-1.425 3.216-3.188v-0.025zM20.945 27.031c0.032 0.845 0.384 1.602 0.938 2.158l-0-0c0.582 0.583 1.386 0.943 2.275 0.943 1.775 0 3.215-1.439 3.215-3.215s-1.439-3.215-3.215-3.215c-1.735 0-3.149 1.375-3.213 3.094l-0 0.006c0.005 0.034 0.007 0.074 0.007 0.114s-0.003 0.080-0.008 0.119l0-0.005zM12.102 14.698v-5.275c0-0.51-0.413-0.923-0.923-0.923s-0.923 0.413-0.923 0.923v0 5.275h-2.441c-0.51 0-0.923 0.413-0.923 0.923s0.413 0.923 0.923 0.923v0h16.348c0.51 0 0.923-0.413 0.923-0.923s-0.413-0.923-0.923-0.923v0h-12.062zM7.307 11.67h-6.384c-0.51 0-0.923-0.413-0.923-0.923s0.413-0.923 0.923-0.923v0h6.384c0.51 0 0.923 0.413 0.923 0.923s-0.413 0.923-0.923 0.923v0z"></path>
</symbol>
<symbol id="icon-checked" viewBox="0 0 32 32">
<path fill="#4b7159" style="fill: var(--color2, #4b7159)" d="M27.52 3.2l-16.32 16.48-6.72-6.72-4.48 4.48 11.2 11.36 20.8-20.96-4.48-4.64z"></path>
</symbol>
<symbol id="icon-checked-checkbox" viewBox="0 0 32 32">
<path d="M32 16c0 8.837-7.163 16-16 16s-16-7.163-16-16c0-8.837 7.163-16 16-16s16 7.163 16 16z"></path>
<path fill="none" stroke="#fff" style="stroke: var(--color1, #fff)" stroke-linejoin="miter" stroke-linecap="butt" stroke-miterlimit="4" stroke-width="3.0476" d="M27.429 16c0 6.312-5.117 11.429-11.429 11.429s-11.429-5.117-11.429-11.429c0-6.312 5.117-11.429 11.429-11.429s11.429 5.117 11.429 11.429z"></path>
</symbol>
<symbol id="icon-credit-card" viewBox="0 0 32 32">
<path fill="#a1a1a1" style="fill: var(--color3, #a1a1a1)" d="M28.5 5.001h-24.997c-1.932 0.001-3.498 1.565-3.502 3.497v15.001c0 1.929 1.57 3.5 3.5 3.5h24.997c1.934-0.001 3.501-1.568 3.502-3.502v-14.996c-0.003-1.932-1.569-3.497-3.5-3.499h-0zM3.502 6.999h24.996c0.828 0 1.5 0.674 1.5 1.5v2h-27.998v-2c0-0.827 0.674-1.499 1.5-1.499zM28.498 25.001h-24.996c-0.828-0.001-1.499-0.672-1.5-1.5v-11.003h28v11.001c-0.001 0.828-0.672 1.499-1.5 1.5h-0z"></path>
<path fill="#a1a1a1" style="fill: var(--color3, #a1a1a1)" d="M7.001 22h-1.001c-0.553 0-1.001-0.448-1.001-1.001v0-0.999c0-0.551 0.448-1.001 1.001-1.001h1.001c0.551 0 0.999 0.448 0.999 1.001v1.001c0 0.551-0.448 0.999-1.001 0.999z"></path>
</symbol>
<symbol id="icon-download" viewBox="0 0 32 32">
<path d="M30.402 27.202h-28.8c-0.884 0-1.6 0.716-1.6 1.6s0.716 1.6 1.6 1.6h28.8c0.884 0 1.6-0.716 1.6-1.6s-0.716-1.6-1.6-1.6v0z"></path>
<path d="M15.998 0c-0.884 0-1.6 0.716-1.6 1.6v0 16.946l-5.264-5.28c-0.291-0.291-0.693-0.471-1.137-0.471-0.888 0-1.607 0.72-1.607 1.607 0 0.444 0.18 0.845 0.47 1.136l8 8c0.29 0.292 0.692 0.472 1.136 0.472s0.846-0.181 1.136-0.472l8-8c0.32-0.295 0.52-0.716 0.52-1.184 0-0.888-0.72-1.608-1.608-1.608-0.468 0-0.889 0.2-1.183 0.519l-0.001 0.001-5.26 5.28v-16.946c0-0.884-0.716-1.6-1.6-1.6v0z"></path>
</symbol>
<symbol id="icon-exit" viewBox="0 0 32 32">
<path d="M20.052 23.236h2.498v4.999c-0.002 2.069-1.679 3.746-3.747 3.748h-15.054c-2.069-0.002-3.746-1.679-3.748-3.747v-24.487c0.002-2.069 1.679-3.746 3.747-3.748h15.054c2.069 0.002 3.746 1.679 3.748 3.747v4.999h-2.496v-4.996c0-0.001 0-0.001 0-0.002 0-0.69-0.56-1.25-1.25-1.25 0 0 0 0 0 0h-15.056c-0.69 0.001-1.249 0.56-1.25 1.25v24.487c0 0.688 0.562 1.248 1.25 1.248h15.054c0 0 0 0 0 0 0.69 0 1.249-0.559 1.25-1.248v-5.001zM26.11 10.101l-1.767 1.767 2.875 2.873h-16.16v2.5h16.16l-2.875 2.873 1.767 1.767 5.89-5.89-5.89-5.89z"></path>
</symbol>
<symbol id="icon-eye" viewBox="0 0 32 32">
<path d="M0.075 16.4c1.459 3.025 3.651 5.497 6.353 7.251l0.069 0.042c2.68 1.74 5.957 2.775 9.477 2.775 0.010 0 0.019 0 0.029-0h-0.002c3.381 0 6.668-0.96 9.504-2.779 2.737-1.772 4.908-4.203 6.324-7.073l0.046-0.104c0.080-0.149 0.127-0.327 0.127-0.515 0-0.175-0.040-0.34-0.112-0.487l0.003 0.007c-1.462-2.989-3.64-5.431-6.319-7.167l-0.069-0.042c-2.681-1.743-5.96-2.779-9.482-2.779-0.008 0-0.016 0-0.024 0h0.001c-3.383 0-6.668 0.96-9.504 2.78-2.747 1.778-4.925 4.221-6.34 7.105l-0.046 0.104c-0.069 0.141-0.11 0.307-0.11 0.482 0 0.144 0.027 0.281 0.077 0.407l-0.003-0.008zM16 7.748c5.705 0 11.004 3.221 13.65 8.252-2.649 4.93-7.761 8.23-13.647 8.252h-0.003c-5.888-0.022-11.001-3.322-13.609-8.17l-0.041-0.083c2.649-4.93 7.761-8.23 13.647-8.252h0.003z"></path>
<path d="M16 20.868c2.687-0.002 4.866-2.18 4.868-4.867v-0c-0.003-2.687-2.18-4.865-4.867-4.868h-0c-2.686 0.004-4.863 2.181-4.866 4.867v0c0.003 2.686 2.179 4.864 4.865 4.868h0zM16 13.351c1.461 0 2.649 1.188 2.649 2.649s-1.186 2.649-2.649 2.649c-1.46 0-2.649-1.188-2.649-2.649s1.191-2.649 2.649-2.649z"></path>
</symbol>
<symbol id="icon-full-heart" viewBox="0 0 31 32">
<path d="M18.461 4.55c1.177-0.718 2.595-1.152 4.113-1.177l0.007-0c4.679 0.21 8.393 4.054 8.393 8.766 0 0.117-0.002 0.233-0.007 0.349l0.001-0.017c0 5.867-6.175 12.275-11.355 16.619-1.108 0.936-2.552 1.504-4.129 1.504s-3.021-0.569-4.139-1.512l0.010 0.008c-5.179-4.345-11.355-10.752-11.355-16.619-0.004-0.099-0.006-0.214-0.006-0.33 0-4.712 3.714-8.556 8.374-8.765l0.019-0.001c3.043 0.049 5.681 1.736 7.075 4.216l0.021 0.041c0.719-1.282 1.727-2.324 2.94-3.062l0.037-0.021z"></path>
</symbol>
<symbol id="icon-line" viewBox="0 0 125 32">
<path stroke-linejoin="miter" stroke-linecap="butt" stroke-miterlimit="4" stroke-width="1.3333" d="M0.159 0.685l123.725 30.393"></path>
</symbol>
<symbol id="icon-palms-flexibility" viewBox="0 0 27 32">
<path d="M11.101 1.998l1.226-0.176 0.552-1.1c0.094-0.19 0.289-0.309 0.5-0.308M11.1 1.998l0.503 3.028c-0.004 0.022-0.007 0.048-0.007 0.074 0 0.138 0.067 0.26 0.17 0.336l0.001 0.001c0.069 0.050 0.155 0.081 0.249 0.081 0.071 0 0.139-0.018 0.198-0.049l-0.002 0.001 0.063 0.123 1.102-0.572 1.102 0.571c0.075 0.040 0.164 0.063 0.259 0.063 0.124 0 0.239-0.040 0.332-0.108l-0.002 0.001c0.172-0.125 0.258-0.337 0.221-0.545l-0.209-1.203 0.884-0.849c0.106-0.101 0.172-0.244 0.172-0.402 0-0.281-0.208-0.513-0.478-0.551l-0.003-0-1.228-0.177-0.549-1.098c-0.093-0.185-0.282-0.31-0.499-0.31-0.001 0-0.001 0-0.002 0h0M11.1 1.997c-0.211 0.031-0.386 0.178-0.452 0.38s-0.010 0.424 0.143 0.572l0.885 0.85-0.209 1.201v0.001l-0.367-3.004zM13.379 0.414v0zM14.483 4.748l-0.177-1.016 0.136-0.024c-0.002-0.012-0.003-0.026-0.003-0.040 0-0.067 0.028-0.127 0.072-0.17l0-0-0.028 1.25zM14.483 4.748l-0.929-0.482c-0.050-0.027-0.11-0.042-0.174-0.042s-0.123 0.016-0.176 0.043l0.002-0.001-0.93 0.482 0.177-1.015v-0.001l-0.136-0.024M14.483 4.748l-2.236-1.25c0.056 0.055 0.082 0.133 0.068 0.21M13.842 2.33l-0.464-0.929-0.466 0.93c-0.055 0.11-0.161 0.186-0.283 0.204v-0.001l1.214-0.204zM12.316 3.708v0zM15.16 2.683l-0.744 0.716-0.45-1.13c0.035 0.069 0.1 0.118 0.178 0.129l0.001 0-0.019 0.136 1.034 0.149zM11.597 2.683l-0.126-0.121-0.173 0.025 0.127 0.121 0.173-0.025zM13.3 1.247l0.077-0.154 0.077 0.154h-0.154z"></path>
<path d="M11.448 15.57v0.138h-0.414c-0.152 0-0.276-0.127-0.276-0.285v-1.87c-0.001-0.887 0.529-1.683 1.332-2.001M11.448 15.569h0.138v-1.474c0-0.157 0.124-0.285 0.276-0.285s0.276 0.127 0.276 0.285v1.474h0.138M11.448 15.569h-0.414c-0.077-0.002-0.138-0.065-0.138-0.142 0-0.001 0-0.003 0-0.004v0-1.87c-0.001-0.807 0.466-1.53 1.177-1.844M11.448 15.569v-1.474c0-0.23 0.182-0.423 0.414-0.423s0.414 0.193 0.414 0.423v1.474M12.276 15.569v0.138h2.483v-0.138M12.276 15.569h2.483M14.759 15.569h0.138v-1.474c0-0.157 0.124-0.285 0.276-0.285s0.276 0.127 0.276 0.285v1.474h0.138M14.759 15.569v-1.474c0-0.23 0.182-0.423 0.414-0.423s0.414 0.193 0.414 0.423v1.474M15.586 15.569v0.138h0.414c0.152 0 0.276-0.127 0.276-0.284v-1.87c0.001-0.887-0.529-1.683-1.332-2.001M15.586 15.569h0.414c0.072 0 0.138-0.061 0.138-0.146v-1.87c0.001-0.807-0.466-1.53-1.177-1.844M14.943 11.552c-0.394 0.292-0.89 0.468-1.426 0.468s-1.032-0.176-1.433-0.472l0.007 0.005M14.943 11.552l0.082 0.111c-0.013 0.010-0.034 0.025-0.055 0.040l-0.009 0.006M14.943 11.552l-0.050 0.128 0.068 0.029M12.090 11.552l0.051 0.128c-0.034 0.013-0.057 0.023-0.079 0.033l0.011-0.005M12.091 11.552l-0.082 0.111 0.064 0.045M12.073 11.709c0.403 0.281 0.904 0.449 1.444 0.449s1.040-0.168 1.452-0.455l-0.008 0.005M15.601 11.089c0.845 0.511 1.367 1.448 1.364 2.463v0 1.87c0 0.543-0.428 0.991-0.966 0.991h-4.966c-0.537 0-0.966-0.447-0.966-0.991v-1.87h0.138l5.394-2.463zM15.601 11.089c0.804-1.084 0.696-2.63-0.275-3.585-0.464-0.461-1.104-0.746-1.81-0.746s-1.346 0.285-1.81 0.746l0-0c-0.971 0.954-1.079 2.5-0.275 3.585h4.17zM13.517 7.609c0.986 0 1.793 0.825 1.793 1.852s-0.807 1.853-1.793 1.853-1.793-0.825-1.793-1.852c0.001-1.026 0.807-1.851 1.793-1.853z"></path>
<path d="M26.243 11.119c-0.135-0.054-0.291-0.085-0.455-0.085-0.206 0-0.4 0.049-0.572 0.137l0.007-0.003c-0.306 0.151-0.535 0.423-0.634 0.749l-0.294 0.988c-0.21 0.751-0.633 1.385-1.199 1.852l-0.006 0.005c-0.283 0.226-0.532 0.491-0.737 0.789-0.306 0.437-0.695 0.795-1.146 1.058l-0.017 0.009-0.221 0.126c-0.237-0.186-0.54-0.299-0.869-0.299-0.003 0-0.005 0-0.008 0h0c-0.004-0-0.008-0-0.012-0-0.474 0-0.893 0.237-1.144 0.6l-0.003 0.005-1.492 2.157c-0.66 0.184-2.949 0.958-3.924 2.937-0.975-1.978-3.264-2.753-3.924-2.937l-1.487-2.151c-0.254-0.37-0.675-0.61-1.152-0.61-0.004 0-0.009 0-0.013 0h0.001c-0.002 0-0.005-0-0.008-0-0.329 0-0.631 0.112-0.871 0.3l0.003-0.002-0.217-0.123c-0.472-0.273-0.863-0.633-1.164-1.062l-0.008-0.012c-0.21-0.301-0.452-0.559-0.727-0.779l-0.007-0.006c-0.572-0.472-0.995-1.106-1.199-1.832l-0.006-0.026-0.294-0.987c-0.102-0.33-0.329-0.596-0.625-0.745l-0.007-0.003c-0.165-0.084-0.359-0.134-0.565-0.134-0.164 0-0.32 0.031-0.464 0.088l0.009-0.003c-0.467 0.186-0.791 0.635-0.791 1.159 0 0.003 0 0.005 0 0.008v-0 1.623c0.001 0.581 0.145 1.129 0.4 1.609l-0.009-0.019 0.826 1.599c0.187 0.357 0.417 0.663 0.689 0.926l0.001 0.001 2.415 2.332c1.694 1.818 4.079 4.741 4.079 5.553-0.093 0.617-0.306 1.17-0.615 1.655l0.010-0.017c-0.098 0.18-0.155 0.395-0.155 0.622 0 0.255 0.072 0.492 0.196 0.694l-0.003-0.006c0.243 0.396 0.674 0.657 1.166 0.657 0.005 0 0.009-0 0.014-0h2.703c0.519 0.006 0.996-0.283 1.231-0.745 0.236-0.49 0.426-1 0.57-1.524 0.143 0.524 0.335 1.034 0.57 1.524 0.231 0.446 0.689 0.746 1.217 0.746 0.005 0 0.011-0 0.016-0h2.703c0.004 0 0.008 0 0.013 0 0.492 0 0.923-0.26 1.163-0.651l0.003-0.006c0.243-0.4 0.258-0.899 0.038-1.311-0.299-0.469-0.513-1.022-0.603-1.615l-0.003-0.023c0-0.811 2.385-3.734 4.063-5.535l2.433-2.349c0.272-0.264 0.501-0.57 0.678-0.907l0.009-0.020 0.823-1.595c0.247-0.462 0.392-1.011 0.393-1.593v-1.623c0-0.003 0-0.007 0-0.011 0-0.524-0.324-0.972-0.783-1.155l-0.008-0.003zM12.14 28.366c-0.080 0.15-0.236 0.25-0.414 0.25-0.004 0-0.007-0-0.011-0h-2.703c-0.004 0-0.008 0-0.013 0-0.166 0-0.312-0.088-0.394-0.219l-0.001-0.002c-0.040-0.063-0.063-0.14-0.063-0.223 0-0.075 0.019-0.145 0.053-0.206l-0.001 0.002c0.373-0.587 0.626-1.285 0.707-2.036l0.002-0.021c0-1.456-3.6-5.393-4.338-6.185l-2.433-2.348c-0.204-0.197-0.376-0.425-0.509-0.677l-0.007-0.015-0.824-1.6c-0.182-0.341-0.289-0.745-0.29-1.174v-1.623c-0-0.002-0-0.005-0-0.008 0-0.19 0.154-0.343 0.343-0.343 0.002 0 0.003 0 0.005 0h-0c0.056 0 0.111 0.013 0.162 0.038 0.082 0.040 0.145 0.111 0.172 0.199l0.294 0.986c0.265 0.935 0.795 1.724 1.503 2.303l0.008 0.006c0.212 0.169 0.397 0.367 0.551 0.59 0.384 0.549 0.872 0.999 1.438 1.329l0.021 0.012 0.183 0.105c-0.025 0.093-0.040 0.2-0.041 0.31v0.001c0.002 0.151 0.028 0.301 0.077 0.444 0.109 0.305 0.212 0.634 0.297 0.949 0.22 0.808 0.638 1.5 1.2 2.046l0.001 0.001c0.012 0.011 0.024 0.022 0.037 0.031l2.356 1.826c0.076 0.062 0.175 0.099 0.282 0.099 0.249 0 0.451-0.202 0.451-0.451 0-0.147-0.070-0.278-0.179-0.36l-0.001-0.001-2.337-1.81c-0.44-0.433-0.767-0.98-0.933-1.593l-0.006-0.025c-0.116-0.431-0.224-0.765-0.344-1.094l0.029 0.090c-0.018-0.045-0.029-0.098-0.029-0.153 0-0.090 0.028-0.172 0.076-0.24l-0.001 0.001c0.004-0.006 0.004-0.011 0.008-0.017s0.013-0.017 0.019-0.025c0.098-0.109 0.24-0.177 0.397-0.177 0.17 0 0.322 0.079 0.42 0.203l0.001 0.001 1.586 2.294c0.065 0.094 0.164 0.16 0.276 0.185 0.158 0.034 3.846 0.874 3.846 4.066 0 0.004 0 0.009 0 0.014 0 1.539-0.341 2.998-0.952 4.306l0.026-0.063h-0.002zM26.134 13.912c-0.001 0.43-0.108 0.836-0.297 1.191l0.007-0.014-0.824 1.598c-0.133 0.257-0.307 0.491-0.516 0.692l-2.447 2.366c-0.721 0.774-4.321 4.711-4.321 6.167 0.082 0.771 0.335 1.47 0.72 2.077l-0.012-0.020c0.033 0.059 0.052 0.129 0.052 0.204 0 0.082-0.023 0.159-0.064 0.224l0.001-0.002c-0.083 0.133-0.229 0.221-0.395 0.221-0.005 0-0.009-0-0.014-0l0.001 0h-2.703c-0.003 0-0.007 0-0.011 0-0.179 0-0.334-0.1-0.413-0.247l-0.001-0.003c-0.584-1.246-0.925-2.705-0.925-4.244 0-0.005 0-0.010 0-0.014v0.001c0-3.193 3.687-4.033 3.845-4.067 0.115-0.026 0.21-0.093 0.274-0.183l0.001-0.001 1.59-2.298c0.095-0.128 0.246-0.211 0.416-0.211 0.16 0 0.303 0.073 0.398 0.187l0.001 0.001c0.006 0.009 0.013 0.017 0.018 0.025s0.004 0.011 0.008 0.017c0.047 0.067 0.075 0.15 0.075 0.239 0 0.051-0.009 0.1-0.026 0.146l0.001-0.003c-0.115 0.326-0.225 0.676-0.318 1.016-0.173 0.637-0.5 1.183-0.94 1.615l-0 0-2.337 1.81c-0.102 0.083-0.167 0.209-0.167 0.351 0 0.249 0.202 0.451 0.451 0.451 0.101 0 0.195-0.033 0.27-0.090l-0.001 0.001 2.356-1.826c0.014-0.010 0.026-0.021 0.038-0.032l-0 0c0.562-0.546 0.98-1.237 1.193-2.013l0.007-0.031c0.086-0.316 0.189-0.646 0.301-0.961 0.047-0.14 0.072-0.286 0.074-0.433-0.002-0.111-0.017-0.218-0.044-0.32l0.002 0.009 0.188-0.108c0.585-0.34 1.071-0.787 1.444-1.32l0.010-0.014c0.154-0.224 0.341-0.425 0.554-0.594 0.715-0.585 1.245-1.373 1.502-2.275l0.008-0.032 0.294-0.988c0.028-0.088 0.090-0.159 0.17-0.198l0.002-0.001c0.048-0.024 0.104-0.038 0.164-0.038 0.050 0 0.098 0.010 0.141 0.028l-0.002-0.001c0.129 0.055 0.21 0.183 0.206 0.323l-0.001 1.625z"></path>
<path d="M19.437 7.032l-0.828 0.966c-0.079 0.093-0.127 0.214-0.127 0.347 0 0.044 0.005 0.086 0.015 0.127l-0.001-0.004c0.038 0.169 0.151 0.3 0.295 0.345 0.031 0.009 0.067 0.015 0.105 0.015 0.121 0 0.229-0.057 0.298-0.146l0.001-0.001 0.828-0.966c0.072-0.091 0.116-0.208 0.116-0.335 0-0.13-0.046-0.249-0.122-0.343l0.001 0.001c-0.069-0.086-0.174-0.141-0.292-0.141-0.115 0-0.218 0.052-0.287 0.135l-0 0.001z"></path>
<path d="M19.31 9.793c0 0.228 0.216 0.414 0.483 0.414h0.966c0.266 0 0.483-0.185 0.483-0.414s-0.216-0.414-0.483-0.414h-0.966c-0.266 0-0.483 0.185-0.483 0.414z"></path>
<path d="M8.137 8.828c0.168 0 0.319-0.118 0.383-0.299 0.020-0.055 0.032-0.118 0.032-0.184 0-0.131-0.046-0.251-0.123-0.344l0.001 0.001-0.83-0.969c-0.069-0.083-0.173-0.136-0.289-0.136-0.119 0-0.224 0.055-0.293 0.141l-0.001 0.001c-0.076 0.093-0.121 0.212-0.121 0.342 0 0.127 0.044 0.245 0.117 0.337l-0.001-0.001 0.83 0.969c0.070 0.085 0.175 0.14 0.293 0.142h0z"></path>
<path d="M5.793 9.793c0 0.228 0.216 0.414 0.483 0.414h0.966c0.266 0 0.483-0.185 0.483-0.414s-0.216-0.414-0.483-0.414h-0.966c-0.266 0-0.483 0.185-0.483 0.414z"></path>
</symbol>
<symbol id="icon-search" viewBox="0 0 32 32">
<path d="M12.879 25.749c2.859 0 5.638-0.954 7.893-2.709l8.514 8.512c0.29 0.29 0.69 0.469 1.132 0.469 0.884 0 1.601-0.717 1.601-1.601 0-0.442-0.179-0.842-0.469-1.132l-8.512-8.512c1.689-2.157 2.709-4.909 2.709-7.9 0-7.109-5.763-12.873-12.873-12.873s-12.873 5.763-12.873 12.873c0 7.109 5.763 12.873 12.873 12.873 0.002 0 0.003 0 0.005 0h-0zM6.039 6.039c1.75-1.75 4.168-2.832 6.839-2.832 5.342 0 9.673 4.331 9.673 9.673s-4.331 9.673-9.673 9.673c-2.671 0-5.088-1.082-6.838-2.832l0 0c-1.759-1.747-2.848-4.166-2.848-6.841s1.089-5.094 2.848-6.84l0.001-0.001z"></path>
</symbol>
<symbol id="icon-target-efficiency" viewBox="0 0 31 32">
<path d="M30.48 0.153l-2.245 2.245v-1.875c0-0.289-0.234-0.523-0.523-0.523-0.144 0-0.275 0.059-0.37 0.153l-3.137 3.137c-0.095 0.095-0.154 0.226-0.154 0.37v0 2.921l-1.227 1.227c-2.038-1.898-4.675-3.177-7.597-3.526l-0.064-0.006v-1.139c0.866 0 1.569-0.702 1.569-1.569s-0.702-1.569-1.569-1.569v0h-3.137c-0.866 0-1.569 0.702-1.569 1.569s0.702 1.569 1.569 1.569v0 1.139c-2.622 0.311-4.96 1.329-6.875 2.856l0.027-0.021-0.899-0.9c-0.292-0.276-0.688-0.446-1.123-0.446s-0.83 0.17-1.124 0.446l0.001-0.001c-0.289 0.288-0.467 0.686-0.467 1.126s0.179 0.838 0.467 1.126l0.897 0.897c-4.489 5.677-3.743 13.875 1.695 18.65s13.665 4.45 18.712-0.737c5.047-5.187 5.145-13.419 0.225-18.725l1.228-1.227h2.921c0.144 0 0.275-0.059 0.37-0.153l3.137-3.137c0.094-0.095 0.153-0.225 0.153-0.37 0-0.289-0.234-0.523-0.523-0.523h-1.875l2.245-2.244c0.095-0.095 0.153-0.225 0.153-0.37 0-0.289-0.234-0.523-0.523-0.523-0.144 0-0.275 0.058-0.37 0.153v0zM25.098 3.876l2.091-2.091v1.658l-2.091 2.092v-1.659zM11.503 1.569c0-0.289 0.234-0.523 0.523-0.523h3.137c0.289 0 0.523 0.234 0.523 0.523s-0.234 0.523-0.523 0.523h-3.137c-0.289 0-0.523-0.234-0.523-0.523v0zM13.072 3.137h1.046v1.059c-0.174-0.006-0.348-0.013-0.523-0.013s-0.349 0.006-0.523 0.013v-1.058zM2.775 7.725c-0.1-0.099-0.161-0.235-0.161-0.387 0-0.153 0.063-0.291 0.164-0.389l0-0c0.094-0.093 0.223-0.151 0.366-0.151 0.005 0 0.009 0 0.014 0h-0.001c0.002-0 0.004-0 0.006-0 0.148 0 0.281 0.060 0.378 0.157v0l0.84 0.836c-0.269 0.249-0.52 0.5-0.761 0.76l-0.008 0.009-0.837-0.836zM26.144 17.778c0 0.005 0 0.011 0 0.017 0 6.941-5.627 12.567-12.567 12.567-5.11 0-9.508-3.050-11.472-7.429l-0.032-0.080c-0.671-1.489-1.062-3.227-1.062-5.057 0-6.941 5.627-12.567 12.567-12.567 3.286 0 6.278 1.261 8.517 3.326l-0.009-0.008-0.739 0.739c-4.622-4.22-11.77-3.977-16.094 0.548s-4.243 11.676 0.183 16.102c4.426 4.426 11.576 4.507 16.102 0.183s4.769-11.471 0.548-16.094l0.739-0.739c2.057 2.221 3.319 5.205 3.319 8.483 0 0.003 0 0.006 0 0.008v-0zM15.164 17.778c0 0.866-0.702 1.569-1.569 1.569s-1.569-0.702-1.569-1.569c0-0.866 0.702-1.569 1.569-1.569v0c0.232 0.001 0.462 0.055 0.671 0.157l-1.042 1.042c-0.096 0.095-0.156 0.227-0.156 0.373 0 0.289 0.234 0.523 0.523 0.523 0.146 0 0.278-0.060 0.373-0.156l0-0 1.042-1.041c0.102 0.21 0.156 0.439 0.157 0.672zM15.034 15.599c-0.407-0.273-0.908-0.436-1.447-0.436-1.448 0-2.623 1.174-2.623 2.623s1.174 2.623 2.623 2.623c1.448 0 2.623-1.174 2.623-2.623 0-0.539-0.163-1.040-0.442-1.457l0.006 0.009 1.494-1.495c0.644 0.8 1.033 1.828 1.033 2.946 0 2.606-2.113 4.718-4.718 4.718s-4.718-2.113-4.718-4.718c0-2.606 2.113-4.718 4.718-4.718 1.119 0 2.147 0.389 2.955 1.040l-0.009-0.007-1.495 1.493zM17.272 13.361c-0.991-0.83-2.28-1.334-3.687-1.334-3.181 0-5.761 2.579-5.761 5.761s2.579 5.761 5.761 5.761c3.182 0 5.761-2.579 5.761-5.761 0-1.407-0.504-2.696-1.342-3.696l0.007 0.009 1.478-1.478c2.796 3.194 2.554 8.030-0.545 10.93s-7.941 2.82-10.943-0.182c-3.002-3.001-3.082-7.843-0.182-10.942s7.736-3.341 10.93-0.546l-1.478 1.479zM19.49 11.144c-3.606-3.206-9.108-2.965-12.418 0.546s-3.229 9.018 0.182 12.43c3.412 3.412 8.919 3.492 12.43 0.182s3.752-8.813 0.546-12.418l1.109-1.109c3.815 4.23 3.561 10.731-0.572 14.65s-10.639 3.827-14.66-0.208c-4.020-4.035-4.090-10.54-0.156-14.66s10.435-4.351 14.652-0.521l-1.111 1.109zM29.587 4.183l-2.091 2.091h-1.659l2.092-2.091h1.658z"></path>
</symbol>
<symbol id="icon-trash" viewBox="0 0 32 32">
<path fill="#a1a1a1" style="fill: var(--color3, #a1a1a1)" d="M3.001 7.001h2v20.48c0.005 1.942 1.578 3.515 3.52 3.52h15c1.924-0.029 3.473-1.593 3.479-3.519v-20.481h2.002c0.553 0 1.001-0.448 1.001-1.001s-0.448-1.001-1.001-1.001v0h-7.001v-1.998c0-0 0-0 0-0.001 0-1.087-0.867-1.972-1.948-1.999l-0.003-0h-8.050c-1.105 0-2 0.895-2 2v0 2h-7.001c-0.018-0.001-0.039-0.002-0.060-0.002-0.553 0-1.001 0.448-1.001 1.001s0.448 1.001 1.001 1.001c0.021 0 0.042-0.001 0.062-0.002l-0.003 0zM12 3.001h8v2h-8v-2.002zM10 7.001h15.001v20.48c-0.001 0.839-0.681 1.518-1.52 1.518-0.001 0-0.001 0-0.002 0h-14.999c-0.822-0.023-1.479-0.694-1.479-1.519 0-0 0-0 0-0.001v0-20.478h2.999z"></path>
<path fill="#a1a1a1" style="fill: var(--color3, #a1a1a1)" d="M12.681 25.001c0 0 0 0 0 0 0.552 0 0.999-0.447 0.999-0.999 0-0.001 0-0.001 0-0.002v0-12c0.001-0.013 0.001-0.027 0.001-0.042 0-0.553-0.448-1.001-1.001-1.001s-1.001 0.448-1.001 1.001c0 0.015 0 0.030 0.001 0.044l-0-0.002v12c0 0.001 0 0.001 0 0.002 0 0.552 0.447 0.999 0.999 0.999 0.001 0 0.001 0 0.002 0h-0zM19.319 25.001c0.001 0 0.001 0 0.002 0 0.552 0 0.999-0.447 0.999-0.999 0-0.001 0-0.001 0-0.002v0-12c-0.023-0.534-0.462-0.959-1-0.959s-0.977 0.424-1 0.957l-0 0.002v12c0 0 0 0 0 0 0 0.552 0.447 1 0.999 1.001h0z"></path>
</symbol>
<symbol id="icon-unchecked-checkbox" viewBox="0 0 32 32">
<path fill="#a1a1a1" style="fill: var(--color3, #a1a1a1)" d="M32 16c0 8.837-7.163 16-16 16s-16-7.163-16-16c0-8.837 7.163-16 16-16s16 7.163 16 16z"></path>
<path fill="#fff" style="fill: var(--color1, #fff); stroke: var(--color1, #fff)" stroke="#fff" stroke-linejoin="miter" stroke-linecap="butt" stroke-miterlimit="4" stroke-width="3.0476" d="M27.429 16c0 6.312-5.117 11.429-11.429 11.429s-11.429-5.117-11.429-11.429c0-6.312 5.117-11.429 11.429-11.429s11.429 5.117 11.429 11.429z"></path>
</symbol>
</defs>
</svg>
