<svg aria-hidden="true" style="position: absolute; width: 0; height: 0; overflow: hidden;" version="1.1" xmlns="http://www.w3.org/2000/svg" xmlns:xlink="http://www.w3.org/1999/xlink">
<defs>
<symbol id="icon-big-assortment" viewBox="0 0 32 32">
<path fill="#fff" style="fill: var(--color1, #fff)" d="M10.133 32h11.734c0.883 0 1.6-0.717 1.6-1.6v-3.218c2.613-2.155 4.266-5.393 4.266-9.017 0-0.011 0-0.022-0-0.033v0.002c0.001-0.059 0.002-0.128 0.002-0.197 0-3.027-1.229-5.768-3.215-7.75l-0-0 0.934-0.935c0.204 0.099 0.428 0.151 0.654 0.152h0.058c0.465-0.003 0.905-0.21 1.203-0.567v-0.002c0.223-0.278 0.359-0.636 0.359-1.025 0-0.461-0.19-0.878-0.496-1.177l-2.218-2.22c-0.278-0.284-0.664-0.461-1.092-0.466h-0.061c-0.417 0-0.817 0.169-1.109 0.466-0.29 0.29-0.469 0.69-0.469 1.133 0 0.25 0.057 0.487 0.159 0.698l-0.004-0.010-1.346 1.346c-0.509-0.254-1.037-0.47-1.578-0.647-1.101-4.266-5.99-6.337-7.47-6.872-0.107-0.039-0.23-0.062-0.359-0.062-0.296 0-0.564 0.12-0.758 0.313l0-0-1.002 0.985c-0.201 0.195-0.326 0.468-0.326 0.77 0 0.004 0 0.009 0 0.013v-0.001c0.003 0.308 0.133 0.584 0.341 0.781l0 0c1.168 1.078 2.031 2.469 2.458 4.039l0.014 0.060c-4.766 1.564-8.147 5.973-8.147 11.172 0 3.635 1.653 6.884 4.248 9.036l0.019 0.016v3.217c0 0.884 0.716 1.6 1.6 1.6v0zM23.129 7.052c0.096 0.096 0.23 0.156 0.377 0.156 0.295 0 0.533-0.239 0.533-0.533 0-0.147-0.060-0.281-0.156-0.377v0l-0.377-0.377c-0.096-0.096-0.155-0.229-0.155-0.376s0.059-0.28 0.156-0.376v0c0.093-0.095 0.223-0.155 0.367-0.155 0.002 0 0.004 0 0.006 0h0.011c0.005-0 0.012-0 0.018-0 0.139 0 0.264 0.060 0.351 0.154l0 0 2.219 2.218c0.213 0.199 0.246 0.524 0.077 0.761-0.089 0.117-0.228 0.191-0.385 0.191-0.012 0-0.024-0-0.036-0.001l0.002 0c-0.006 0-0.012 0-0.019 0-0.138 0-0.262-0.059-0.348-0.152l-0-0-0.377-0.377c-0.097-0.097-0.23-0.156-0.377-0.156-0.295 0-0.533 0.239-0.533 0.533 0 0.147 0.060 0.28 0.156 0.377v0l-1.794 1.793c-0.195 0.206-0.471 0.335-0.776 0.335-0.589 0-1.067-0.478-1.067-1.067 0-0.305 0.128-0.58 0.333-0.774l0-0 1.796-1.794zM5.333 18.133c-0-0.007-0-0.016-0-0.024 0-4.719 3.073-8.721 7.327-10.113l0.075-0.021c0.44-0.141 0.752-0.546 0.752-1.024 0-0.092-0.012-0.181-0.033-0.266l0.002 0.007c-0.509-1.837-1.479-3.406-2.778-4.628l-0.005-0.005 1.017-0.993c1.348 0.489 5.821 2.372 6.792 6.136 0.093 0.359 0.361 0.64 0.705 0.749l0.008 0.002c0.458 0.148 0.834 0.298 1.198 0.47l-0.062-0.026c-0.228 0.334-0.365 0.748-0.365 1.193 0 1.178 0.955 2.133 2.133 2.133 0.584 0 1.113-0.235 1.498-0.615l-0 0 0.169-0.169c1.793 1.796 2.903 4.275 2.903 7.013 0 0.064-0.001 0.127-0.002 0.191l0-0.009c0 0.007 0 0.016 0 0.025 0 3.379-1.58 6.389-4.042 8.331l-0.022 0.017-0.002 0.003c-0.59 0.469-1.256 0.889-1.967 1.233l-0.064 0.028c-0.182 0.088-0.305 0.27-0.305 0.482 0 0.294 0.239 0.533 0.533 0.533 0.083 0 0.162-0.019 0.232-0.053l-0.003 0.001c0.474-0.226 0.934-0.484 1.373-0.772v2.438c0 0.294-0.239 0.533-0.533 0.533h-11.734c-0.294 0-0.533-0.239-0.533-0.533v0-2.436c0.439 0.289 0.897 0.547 1.372 0.772 0.062 0.027 0.134 0.043 0.21 0.043 0.294 0 0.533-0.239 0.533-0.533 0-0.204-0.115-0.381-0.283-0.471l-0.003-0.001c-0.772-0.372-1.437-0.792-2.048-1.277l0.022 0.017-0.004-0.004c-2.485-1.959-4.065-4.97-4.065-8.349 0-0.009 0-0.018 0-0.027v0.001z"></path>
<path fill="#fff" style="fill: var(--color1, #fff)" d="M15.993 27.734c0.002 0 0.005 0 0.007 0 5.302 0 9.6-4.298 9.6-9.6 0-1.532-0.359-2.98-0.997-4.264l0.025 0.056c-0.18-0.354-0.542-0.593-0.959-0.593-0 0-0.001 0-0.001 0h-15.338c-0 0-0.001 0-0.001 0-0.417 0-0.779 0.238-0.956 0.586l-0.003 0.006c-0.611 1.228-0.969 2.674-0.969 4.204 0 5.3 4.293 9.597 9.591 9.604h0.001zM8.331 14.4h15.341c0.544 1.091 0.862 2.376 0.862 3.736 0 4.546-3.557 8.262-8.039 8.516l-0.023 0.001c-0.143 0.009-0.311 0.014-0.48 0.014-4.708 0-8.525-3.817-8.525-8.525 0-1.362 0.319-2.649 0.887-3.791l-0.022 0.050z"></path>
<path fill="#fff" style="fill: var(--color1, #fff)" d="M15.467 24c0.884 0 1.6-0.716 1.6-1.6s-0.716-1.6-1.6-1.6v0c-0.884 0-1.6 0.716-1.6 1.6s0.716 1.6 1.6 1.6v0zM15.467 21.867c0.294 0 0.533 0.239 0.533 0.533s-0.239 0.533-0.533 0.533v0c-0.294 0-0.533-0.239-0.533-0.533s0.239-0.533 0.533-0.533v0zM21.333 22.4c0.884 0 1.6-0.716 1.6-1.6s-0.716-1.6-1.6-1.6v0c-0.884 0-1.6 0.716-1.6 1.6s0.716 1.6 1.6 1.6v0zM21.333 20.267c0.294 0 0.533 0.239 0.533 0.533s-0.239 0.533-0.533 0.533v0c-0.294 0-0.533-0.239-0.533-0.533s0.239-0.533 0.533-0.533v0zM22.4 18.133c0.295 0 0.534-0.239 0.534-0.534s-0.239-0.534-0.534-0.534v0c-0.295 0-0.534 0.239-0.534 0.534s0.239 0.534 0.534 0.534v0zM18.667 24.533c0.294 0 0.533-0.239 0.533-0.533s-0.239-0.533-0.533-0.533v0c-0.294 0-0.533 0.239-0.533 0.533s0.239 0.533 0.533 0.533v0zM11.2 23.467c0.295 0 0.534-0.239 0.534-0.534s-0.239-0.534-0.534-0.534v0c-0.294 0-0.533 0.239-0.533 0.533s0.239 0.533 0.533 0.533v0zM12.8 20.8c0.294 0 0.533-0.239 0.533-0.533s-0.239-0.533-0.533-0.533v0c-0.294 0-0.533 0.239-0.533 0.533s0.239 0.533 0.533 0.533v0zM9.6 20.8c0.295 0 0.534-0.239 0.534-0.534s-0.239-0.534-0.534-0.534v0c-0.295 0-0.534 0.239-0.534 0.534s0.239 0.534 0.534 0.534v0zM17.6 19.733c1.178 0 2.133-0.955 2.133-2.133s-0.955-2.133-2.133-2.133v0c-1.178 0-2.133 0.955-2.133 2.133s0.955 2.133 2.133 2.133v0zM17.6 16.533c0.589 0 1.067 0.478 1.067 1.067s-0.478 1.067-1.067 1.067v0c-0.589 0-1.067-0.478-1.067-1.067s0.478-1.067 1.067-1.067v0zM11.2 18.667c0.884 0 1.6-0.716 1.6-1.6s-0.716-1.6-1.6-1.6v0c-0.884 0-1.6 0.716-1.6 1.6s0.716 1.6 1.6 1.6v0zM11.2 16.533c0.295 0 0.534 0.239 0.534 0.534s-0.239 0.534-0.534 0.534v0c-0.295 0-0.534-0.239-0.534-0.534s0.239-0.534 0.534-0.534v0z"></path>
</symbol>
<symbol id="icon-ease-of-use" viewBox="0 0 32 32">
<path fill="#fff" style="fill: var(--color1, #fff)" d="M13.334 14c0 1.525 2.226 2.405 2.479 2.5 0.056 0.021 0.12 0.033 0.187 0.033s0.131-0.012 0.191-0.035l-0.004 0.001c0.254-0.095 2.48-0.974 2.48-2.5-0.024-0.963-0.81-1.734-1.776-1.734-0.013 0-0.026 0-0.038 0l0.002-0c-0.007-0-0.016-0-0.025-0-0.307 0-0.594 0.090-0.835 0.244l0.006-0.004c-0.235-0.151-0.521-0.24-0.829-0.24-0.009 0-0.018 0-0.026 0l0.001-0c-0.011-0-0.024-0-0.037-0-0.966 0-1.752 0.771-1.775 1.732l-0 0.002zM15.146 13.333c0.002 0 0.003-0 0.005-0 0.189 0 0.357 0.092 0.461 0.234l0.001 0.002c0.099 0.098 0.235 0.159 0.386 0.159s0.287-0.061 0.386-0.159l-0 0c0.105-0.143 0.273-0.235 0.463-0.235 0.002 0 0.004 0 0.006 0h-0c0.011-0.001 0.024-0.001 0.037-0.001 0.378 0 0.686 0.294 0.709 0.666l0 0.002c0 0.563-0.979 1.152-1.6 1.424-0.62-0.272-1.6-0.861-1.6-1.424 0.023-0.374 0.332-0.668 0.709-0.668 0.013 0 0.026 0 0.039 0.001l-0.002-0z"></path>
<path fill="#fff" style="fill: var(--color1, #fff)" d="M31.064 10.232c-0.16-0.063-0.345-0.1-0.539-0.1-0.244 0-0.474 0.058-0.677 0.162l0.009-0.004c-0.362 0.179-0.634 0.5-0.751 0.887l-0.348 1.168c-0.249 0.889-0.75 1.639-1.419 2.191l-0.007 0.006c-0.335 0.269-0.623 0.576-0.862 0.92l-0.009 0.014c-0.363 0.517-0.823 0.94-1.357 1.25l-0.020 0.011-0.261 0.151c-0.281-0.221-0.639-0.354-1.029-0.354-0.003 0-0.006 0-0.009 0h0c-0.004-0-0.009-0-0.013-0-0.561 0-1.057 0.281-1.355 0.71l-0.004 0.005-1.766 2.551c-0.782 0.219-3.492 1.135-4.646 3.476-1.155-2.342-3.864-3.256-4.646-3.475l-1.76-2.545c-0.301-0.438-0.799-0.722-1.363-0.722-0.005 0-0.010 0-0.014 0h0.001c-0.003-0-0.006-0-0.009-0-0.389 0-0.747 0.133-1.032 0.356l0.004-0.003-0.257-0.146c-0.558-0.323-1.021-0.749-1.377-1.256l-0.009-0.014c-0.249-0.356-0.536-0.662-0.861-0.922l-0.009-0.007c-0.677-0.558-1.178-1.309-1.42-2.167l-0.007-0.030-0.348-1.168c-0.12-0.391-0.39-0.705-0.74-0.883l-0.008-0.004c-0.376-0.188-0.815-0.209-1.208-0.056-0.568 0.221-0.941 0.771-0.936 1.381v1.92c0.001 0.688 0.172 1.336 0.473 1.905l-0.011-0.022 0.979 1.892c0.21 0.408 0.486 0.778 0.815 1.097l2.858 2.758c2.005 2.152 4.828 5.61 4.828 6.57-0.109 0.73-0.361 1.384-0.727 1.959l0.012-0.020c-0.116 0.213-0.184 0.467-0.184 0.737 0 0.301 0.085 0.582 0.232 0.821l-0.004-0.007c0.296 0.487 0.825 0.781 1.395 0.776h3.2c0.006 0 0.012 0 0.019 0 0.625 0 1.167-0.355 1.436-0.874l0.004-0.009c0.252-0.507 0.482-1.106 0.657-1.728l0.018-0.075c0.17 0.621 0.396 1.224 0.676 1.803 0.279 0.548 0.843 0.89 1.458 0.883h3.2c0.005 0 0.010 0 0.015 0 0.582 0 1.092-0.308 1.376-0.77l0.004-0.007c0.287-0.473 0.305-1.064 0.044-1.552-0.354-0.554-0.606-1.208-0.713-1.91l-0.003-0.028c0-0.96 2.824-4.419 4.809-6.55l2.88-2.778c0.328-0.32 0.602-0.69 0.813-1.097l0.974-1.887c0.292-0.547 0.464-1.196 0.466-1.885v-1.92c0-0.004 0-0.008 0-0.013 0-0.62-0.384-1.151-0.927-1.367l-0.010-0.004zM14.37 30.638c-0.095 0.177-0.279 0.296-0.491 0.296-0.004 0-0.009-0-0.013-0h-3.199c-0.004 0-0.009 0-0.014 0-0.197 0-0.37-0.104-0.466-0.259l-0.001-0.002c-0.047-0.075-0.075-0.166-0.075-0.264 0-0.088 0.023-0.171 0.063-0.243l-0.001 0.003c0.461-0.737 0.748-1.569 0.838-2.434 0-1.722-4.26-6.381-5.134-7.318l-2.88-2.778c-0.241-0.233-0.445-0.503-0.602-0.802l-0.008-0.017-0.976-1.892c-0.215-0.403-0.342-0.882-0.343-1.39v-1.92c-0-0.003-0-0.007-0-0.010 0-0.224 0.182-0.406 0.406-0.406 0.002 0 0.004 0 0.006 0h-0c0.066 0 0.132 0.015 0.191 0.045 0.098 0.047 0.171 0.132 0.204 0.235l0.348 1.167c0.314 1.106 0.941 2.039 1.779 2.724l0.010 0.008c0.25 0.2 0.471 0.435 0.652 0.698 0.454 0.65 1.032 1.182 1.702 1.572l0.025 0.014 0.216 0.124c-0.030 0.12-0.047 0.244-0.048 0.367 0.002 0.179 0.033 0.358 0.091 0.526 0.128 0.36 0.25 0.75 0.352 1.123 0.261 0.956 0.756 1.774 1.42 2.419l0.001 0.001c0.013 0.013 0.027 0.025 0.042 0.037l0.001 0.001 2.79 2.161c0.089 0.070 0.203 0.112 0.327 0.112 0.295 0 0.534-0.239 0.534-0.534 0-0.171-0.081-0.324-0.206-0.421l-0.001-0.001-2.766-2.141c-0.52-0.513-0.907-1.159-1.105-1.884l-0.007-0.029c-0.137-0.51-0.265-0.905-0.408-1.294l0.034 0.106c-0.022-0.054-0.034-0.116-0.034-0.181 0-0.106 0.033-0.204 0.090-0.284l-0.001 0.002c0.005-0.007 0.006-0.013 0.009-0.020s0.016-0.019 0.022-0.029c0.117-0.129 0.284-0.209 0.471-0.209 0.202 0 0.381 0.094 0.498 0.241l0.001 0.001 1.878 2.714c0.076 0.109 0.19 0.188 0.322 0.218l0.004 0.001c0.187 0.040 4.552 1.034 4.552 4.811 0 0.005 0 0.012 0 0.018 0 1.821-0.403 3.547-1.126 5.095l0.031-0.074h-0.002zM30.934 13.537c-0.001 0.485-0.119 0.962-0.344 1.392l-0.975 1.89c-0.166 0.316-0.37 0.586-0.611 0.818l-0.001 0.001-2.897 2.799c-0.854 0.916-5.115 5.575-5.115 7.297 0.090 0.865 0.376 1.697 0.839 2.434 0.039 0.070 0.062 0.153 0.062 0.242 0 0.097-0.028 0.188-0.075 0.265l0.001-0.002c-0.098 0.158-0.271 0.262-0.468 0.262-0.005 0-0.011-0-0.016-0l0.001 0h-3.2c-0.004 0-0.009 0-0.015 0-0.212 0-0.396-0.118-0.489-0.293l-0.001-0.003c-0.691-1.473-1.095-3.2-1.095-5.020 0-0.006 0-0.012 0-0.019v0.001c0-3.777 4.364-4.772 4.551-4.811 0.136-0.031 0.249-0.109 0.325-0.217l0.001-0.002 1.882-2.72c0.113-0.152 0.291-0.25 0.493-0.25 0.189 0 0.359 0.086 0.471 0.221l0.001 0.001c0.006 0.010 0.015 0.019 0.022 0.029s0.005 0.013 0.009 0.020c0.055 0.079 0.088 0.177 0.088 0.282 0 0.061-0.011 0.119-0.031 0.173l0.001-0.003c-0.136 0.385-0.266 0.8-0.376 1.202-0.204 0.753-0.591 1.4-1.111 1.911l-0.001 0.001-2.766 2.141c-0.126 0.099-0.206 0.251-0.206 0.422 0 0.295 0.239 0.534 0.534 0.534 0.124 0 0.238-0.042 0.329-0.113l-0.001 0.001 2.789-2.159c0.016-0.012 0.030-0.025 0.043-0.038l-0 0c0.666-0.646 1.16-1.464 1.413-2.383l0.009-0.037c0.102-0.374 0.224-0.764 0.357-1.137 0.056-0.166 0.085-0.339 0.088-0.513-0.002-0.131-0.020-0.258-0.052-0.378l0.002 0.011 0.222-0.128c0.693-0.402 1.268-0.932 1.709-1.562l0.011-0.017c0.183-0.264 0.403-0.502 0.655-0.702 0.847-0.692 1.474-1.624 1.779-2.692l0.009-0.038 0.348-1.168c0.032-0.104 0.105-0.188 0.203-0.235 0.057-0.028 0.123-0.045 0.194-0.045 0.059 0 0.115 0.012 0.167 0.033l-0.003-0.001c0.152 0.066 0.248 0.216 0.245 0.382l-0.001 1.922z"></path>
<path fill="#fff" style="fill: var(--color1, #fff)" d="M13.567 8.045c-2.026 1.012-3.401 3.058-3.431 5.428l-0 0.004c-0.001 0.043-0.002 0.093-0.002 0.144 0 2.303 1.345 4.291 3.293 5.223l0.035 0.015c0.11 0.056 0.201 0.134 0.271 0.23l0.002 0.002c0.509 0.714 1.334 1.175 2.266 1.175 0.937 0 1.765-0.464 2.267-1.175l0.006-0.009c0.067-0.093 0.155-0.167 0.256-0.217l0.004-0.002c1.975-0.946 3.318-2.923 3.334-5.215v-0.002c0-2.628-1.324-4.777-3.457-5.609-0.163-0.067-0.276-0.225-0.276-0.409 0-0 0-0.001 0-0.001v0-2.088c0-0.002-0-0.005-0-0.007 0-0.556 0.327-1.035 0.799-1.256l0.009-0.004c0.355-0.197 0.591-0.57 0.591-0.999 0-0.629-0.51-1.139-1.139-1.139-0.004 0-0.008 0-0.011 0h-0.249v-0.925c-0.002-0.668-0.541-1.208-1.208-1.208h-1.85c-0.667 0-1.208 0.541-1.208 1.208v0.925h-0.249c-0.001 0-0.002 0-0.003 0-0.632 0-1.144 0.51-1.147 1.141v0c0 0.415 0.227 0.797 0.592 0.996 0.492 0.198 0.813 0.677 0.808 1.207v2.149c-0.007 0.191-0.128 0.351-0.296 0.418l-0.003 0.001zM14.934 1.208c0-0.078 0.063-0.141 0.141-0.141v0h1.85c0.078 0 0.141 0.063 0.141 0.141v0 0.925h-2.133v-0.925zM13.569 3.336c-0.021-0.012-0.036-0.034-0.036-0.060 0-0.001 0-0.001 0-0.002v0c0.002-0.042 0.037-0.075 0.079-0.075 0.002 0 0.003 0 0.005 0h4.766c0.001-0 0.003-0 0.004-0 0.043 0 0.077 0.033 0.080 0.075v0c0 0 0 0.001 0 0.001 0 0.026-0.015 0.048-0.036 0.059l-0 0c-0.814 0.408-1.364 1.236-1.364 2.192 0 0.004 0 0.008 0 0.011v-0.001 2.089c0.002 0.633 0.392 1.175 0.945 1.4l0.010 0.004c1.712 0.668 2.778 2.436 2.778 4.616-0.015 1.871-1.112 3.483-2.695 4.241l-0.029 0.012c-0.264 0.126-0.489 0.315-0.662 0.551-0.304 0.455-0.815 0.75-1.395 0.75-0.007 0-0.014-0-0.021-0h0.001c-0.011 0-0.023 0-0.035 0-0.572 0-1.076-0.292-1.37-0.736l-0.004-0.006c-0.174-0.238-0.399-0.428-0.661-0.557l-0.011-0.005c-1.621-0.771-2.721-2.395-2.721-4.276 0-0.040 0.001-0.079 0.001-0.119l-0 0.006c0.031-1.95 1.146-3.632 2.768-4.473l0.028-0.013c0.561-0.239 0.928-0.785 0.937-1.395v-2.149c0-0.004 0-0.010 0-0.015 0-0.939-0.553-1.749-1.35-2.122l-0.014-0.006zM23.090 5.49l-1.067 1.066c-0.103 0.098-0.168 0.235-0.168 0.388 0 0.295 0.239 0.534 0.534 0.534 0.153 0 0.291-0.064 0.388-0.168l0-0 1.066-1.066c0.086-0.094 0.139-0.221 0.139-0.359 0-0.295-0.239-0.534-0.534-0.534-0.139 0-0.265 0.053-0.36 0.14l0-0zM22.934 8.534c0 0.295 0.238 0.533 0.533 0.533h1.067c0.285-0.012 0.511-0.246 0.511-0.533s-0.226-0.521-0.51-0.533l-0.001-0h-1.067c-0.294 0.001-0.533 0.239-0.533 0.534 0 0 0 0 0 0v0zM9.6 7.466c0.294-0.001 0.532-0.24 0.532-0.534 0-0.147-0.059-0.28-0.155-0.377l-1.065-1.066c-0.094-0.086-0.221-0.139-0.359-0.139-0.295 0-0.534 0.239-0.534 0.534 0 0.139 0.053 0.265 0.14 0.36l-0-0 1.066 1.066c0.101 0.101 0.235 0.156 0.377 0.156zM6.934 8.534c0 0.295 0.238 0.533 0.533 0.533h1.067c0.285-0.012 0.511-0.246 0.511-0.533s-0.226-0.521-0.51-0.533l-0.001-0h-1.067c-0.294 0.001-0.533 0.239-0.533 0.534 0 0 0 0 0 0v0z"></path>
</symbol>
<symbol id="icon-month-sophistication" viewBox="0 0 32 32">
<path fill="#fff" style="fill: var(--color1, #fff)" d="M16 0c-0.004 0-0.009 0-0.014 0-4.082 0-7.806 1.533-10.628 4.055l0.015-0.014c-0.165 0.147-0.268 0.36-0.268 0.597 0 0.442 0.358 0.8 0.8 0.8 0.123 0 0.239-0.028 0.343-0.077l-0.005 0.002c1.452-0.692 3.155-1.097 4.953-1.097 6.48 0 11.734 5.253 11.734 11.734s-5.253 11.734-11.734 11.734c-1.796 0-3.498-0.404-5.020-1.125l0.071 0.030c-0.1-0.048-0.217-0.077-0.341-0.077-0.442 0-0.8 0.358-0.8 0.8 0 0.239 0.105 0.454 0.271 0.601l0.001 0.001c2.8 2.505 6.517 4.036 10.592 4.036 0.206 0 0.412-0.004 0.616-0.012l-0.029 0.001c8.215-0.347 14.818-6.796 15.408-14.912l0.003-0.052c0.023-0.321 0.036-0.695 0.036-1.072 0-4.228-1.653-8.071-4.348-10.916l0.007 0.007c-2.93-3.103-7.070-5.037-11.662-5.044h-0.001zM30.903 16.96c-0.518 7.825-6.991 13.976-14.902 13.976-3.203 0-6.171-1.009-8.602-2.725l0.047 0.031c1.303 0.397 2.66 0.586 4.020 0.558 6.945-0.161 12.513-5.829 12.513-12.797 0-7.069-5.731-12.8-12.8-12.8-1.332 0-2.616 0.203-3.823 0.581l0.091-0.024c2.384-1.684 5.351-2.692 8.553-2.692 8.248 0 14.934 6.686 14.934 14.934 0 0.337-0.011 0.672-0.033 1.004l0.002-0.045z"></path>
<path fill="#fff" style="fill: var(--color1, #fff)" d="M0.763 15.515c-0.104 0.132-0.167 0.301-0.167 0.485s0.063 0.353 0.168 0.487l-0.001-0.002c0.691 0.901 4.357 5.381 8.837 5.381s8.146-4.48 8.837-5.382c0.104-0.132 0.167-0.301 0.167-0.484s-0.063-0.352-0.168-0.486l0.001 0.002c-0.691-0.897-4.357-5.382-8.837-5.382s-8.147 4.485-8.837 5.384zM17.185 16.335c-1.155 1.371-4.141 4.465-7.585 4.465-3.443 0-6.432-3.094-7.585-4.465 0.968-1.006 2.16-1.79 3.496-2.272l0.064-0.020c-0.152 0.42-0.24 0.906-0.24 1.411 0 2.356 1.91 4.266 4.266 4.266s4.266-1.91 4.266-4.266c0-0.504-0.087-0.987-0.248-1.436l0.009 0.030c1.397 0.505 2.587 1.287 3.555 2.285l0.002 0.002zM6.4 15.466c0-0.003-0-0.007-0-0.011 0-0.693 0.227-1.332 0.611-1.848l-0.006 0.008c0.777-0.179 1.67-0.282 2.587-0.282 0.923 0 1.821 0.104 2.684 0.302l-0.081-0.015c0.394 0.535 0.607 1.183 0.604 1.847 0 1.767-1.433 3.2-3.2 3.2s-3.2-1.433-3.2-3.2v0zM9.6 11.2c2.020 0 3.881 1.066 5.312 2.226-1.523-0.732-3.312-1.16-5.2-1.16-0.039 0-0.079 0-0.118 0.001l0.006-0c-0.033-0-0.073-0.001-0.112-0.001-1.888 0-3.677 0.428-5.274 1.192l0.074-0.032c1.431-1.16 3.292-2.227 5.312-2.227zM10.134 8.534v-2.134c0-0.295-0.239-0.534-0.534-0.534s-0.534 0.239-0.534 0.534v0 2.134c0 0.295 0.239 0.534 0.534 0.534s0.534-0.239 0.534-0.534v0zM6.4 9.6c0.294-0.001 0.533-0.239 0.533-0.534 0-0.060-0.010-0.118-0.028-0.171l0.001 0.004-0.532-1.6c-0.073-0.214-0.272-0.366-0.507-0.366-0.295 0-0.534 0.239-0.534 0.534 0 0.060 0.010 0.118 0.028 0.172l-0.001-0.004 0.534 1.6c0.073 0.218 0.276 0.365 0.507 0.365zM3.044 9.222c-0.097-0.097-0.23-0.156-0.378-0.156-0.295 0-0.534 0.239-0.534 0.534 0 0.147 0.060 0.281 0.156 0.378v0l1.068 1.066c0.097 0.097 0.23 0.156 0.378 0.156 0.295 0 0.534-0.239 0.534-0.534 0-0.147-0.060-0.281-0.156-0.378v0l-1.068-1.066zM0.69 13.178c0.097 0.103 0.235 0.167 0.387 0.167 0.295 0 0.534-0.239 0.534-0.534 0-0.153-0.064-0.291-0.167-0.388l-0-0-0.535-0.531c-0.098-0.108-0.239-0.176-0.396-0.176-0.295 0-0.534 0.239-0.534 0.534 0 0.157 0.068 0.298 0.175 0.395l0 0 0.534 0.534zM12.8 9.6c0.23 0 0.434-0.147 0.506-0.365l0.534-1.6c0.017-0.050 0.027-0.108 0.027-0.168 0-0.295-0.239-0.534-0.534-0.534-0.235 0-0.434 0.151-0.506 0.362l-0.001 0.004-0.532 1.6c-0.017 0.050-0.027 0.108-0.027 0.168 0 0.295 0.239 0.534 0.534 0.534 0 0 0 0 0 0v0zM15.844 11.044l1.066-1.066c0.091-0.095 0.146-0.225 0.146-0.367 0-0.295-0.239-0.534-0.534-0.534-0.142 0-0.271 0.055-0.367 0.146l0-0-1.066 1.068c-0.108 0.098-0.176 0.239-0.176 0.396 0 0.295 0.239 0.534 0.534 0.534 0.157 0 0.298-0.068 0.395-0.175l0-0zM19.044 11.89c-0.097-0.097-0.23-0.156-0.378-0.156s-0.281 0.060-0.378 0.156v0l-0.532 0.534c-0.103 0.097-0.167 0.235-0.167 0.387 0 0.295 0.239 0.534 0.534 0.534 0.153 0 0.291-0.064 0.388-0.167l0-0 0.532-0.534c0.096-0.097 0.156-0.23 0.156-0.377s-0.060-0.28-0.156-0.377v0zM9.066 23.466v2.134c0 0.295 0.239 0.534 0.534 0.534s0.534-0.239 0.534-0.534v-2.134c0-0.295-0.239-0.534-0.534-0.534s-0.534 0.239-0.534 0.534v0zM5.894 22.765l-0.534 1.6c-0.017 0.050-0.027 0.108-0.027 0.168 0 0.295 0.239 0.534 0.534 0.534 0.235 0 0.434-0.151 0.506-0.362l0.001-0.004 0.532-1.6c0.021-0.055 0.033-0.118 0.033-0.184 0-0.295-0.239-0.534-0.534-0.534-0.241 0-0.444 0.159-0.511 0.378l-0.001 0.004zM3.356 20.956l-1.066 1.068c-0.108 0.098-0.176 0.239-0.176 0.396 0 0.295 0.239 0.534 0.534 0.534 0.157 0 0.298-0.068 0.395-0.175l0-0 1.066-1.068c0.086-0.094 0.138-0.22 0.138-0.358 0-0.295-0.239-0.534-0.534-0.534-0.138 0-0.264 0.052-0.359 0.138l0-0zM0.69 18.822l-0.534 0.534c-0.097 0.097-0.156 0.23-0.156 0.378 0 0.295 0.239 0.534 0.534 0.534 0.147 0 0.281-0.060 0.378-0.156v0l0.532-0.535c0.090-0.095 0.146-0.224 0.146-0.366 0-0.295-0.239-0.534-0.534-0.534-0.142 0-0.272 0.056-0.367 0.147l0-0zM12.631 22.428c-0.213 0.073-0.364 0.272-0.364 0.506 0 0.060 0.010 0.117 0.028 0.171l-0.001-0.004 0.532 1.6c0.073 0.214 0.272 0.366 0.507 0.366 0.295 0 0.534-0.239 0.534-0.534 0-0.060-0.010-0.118-0.028-0.172l0.001 0.004-0.534-1.6c-0.073-0.214-0.272-0.364-0.506-0.364-0.061 0-0.119 0.010-0.173 0.029l0.004-0.001zM15.844 20.956c-0.097-0.097-0.23-0.156-0.378-0.156-0.295 0-0.534 0.239-0.534 0.534 0 0.147 0.060 0.281 0.156 0.378v0l1.068 1.066c0.097 0.097 0.23 0.156 0.378 0.156 0.295 0 0.534-0.239 0.534-0.534 0-0.147-0.060-0.281-0.156-0.378v0l-1.068-1.066zM18.51 18.822c-0.095-0.090-0.224-0.146-0.366-0.146-0.295 0-0.534 0.239-0.534 0.534 0 0.142 0.056 0.272 0.147 0.367l-0-0 0.534 0.532c0.094 0.086 0.22 0.138 0.358 0.138 0.295 0 0.534-0.239 0.534-0.534 0-0.138-0.052-0.264-0.138-0.359l0 0-0.534-0.534z"></path>
<path fill="#fff" style="fill: var(--color1, #fff)" d="M9.6 17.6c0.884 0 1.6-0.716 1.6-1.6s-0.716-1.6-1.6-1.6v0c-0.884 0-1.6 0.716-1.6 1.6s0.716 1.6 1.6 1.6v0zM9.6 15.466c0.295 0 0.534 0.239 0.534 0.534s-0.239 0.534-0.534 0.534v0c-0.295 0-0.534-0.239-0.534-0.534s0.239-0.534 0.534-0.534v0z"></path>
</symbol>
<symbol id="icon-nature-care" viewBox="0 0 32 32">
<path fill="#fff" style="fill: var(--color1, #fff)" d="M31.512 23.466c-0.467-0.033-1.012-0.052-1.561-0.052-0.782 0-1.554 0.038-2.316 0.114l0.096-0.008v-0.684c0.365-0.12 0.674-0.37 0.866-0.702 0.127-0.215 0.201-0.475 0.201-0.751 0-0.286-0.080-0.553-0.218-0.78l0.004 0.007c-0.254-0.422-0.5-0.779-0.766-1.12l0.019 0.026c-0.154-0.183-0.384-0.299-0.64-0.299s-0.486 0.116-0.639 0.298l-0.001 0.001c-0.269 0.35-0.519 0.715-0.746 1.094-0.135 0.221-0.215 0.488-0.215 0.774 0 0.277 0.075 0.536 0.205 0.758l-0.004-0.007c0.193 0.333 0.502 0.584 0.867 0.703v0.8c-2.694 0.311-5.135 1.161-7.291 2.441l0.085-0.047c-1.985-0.376-3.749-0.952-5.404-1.721l0.14 0.058c1.248-0.487 2.317-1.039 3.32-1.684l-0.018 0.011c0.060-0.038 0.122-0.075 0.169-0.107 7.537-4.922 13.484-4.452 13.736-4.428 0.014 0.001 0.031 0.002 0.048 0.002 0.294 0 0.533-0.239 0.533-0.533 0-0.277-0.212-0.505-0.483-0.531l-0.002-0c-0.18-0.017-3.15-0.252-7.498 1.207v-1.298c0.725-0.163 1.324-0.609 1.686-1.214l0.007-0.012c0.518-0.869 0.546-1.944 0.075-2.84-0.433-0.808-0.912-1.591-1.432-2.344-0.19-0.281-0.508-0.464-0.868-0.464s-0.678 0.182-0.866 0.46l-0.002 0.004c-0.461 0.657-0.935 1.423-1.367 2.215l-0.064 0.129c-0.211 0.392-0.335 0.858-0.335 1.353 0 0.549 0.152 1.062 0.417 1.5l-0.007-0.013c0.368 0.617 0.966 1.063 1.674 1.223l0.017 0.003v1.681c-0.714 0.273-1.458 0.59-2.229 0.96-0.76-1.235-2.104-2.046-3.638-2.046-1.63 0-3.045 0.916-3.761 2.261l-0.011 0.023c-1.008-0.556-2.224-1.121-3.48-1.607l-0.213-0.073v-1.445c0.52-0.155 0.946-0.491 1.214-0.934l0.005-0.009c0.461-0.755 0.505-1.694 0.115-2.488-0.384-0.768-0.748-1.398-1.142-2.007l0.049 0.081c-0.162-0.264-0.448-0.438-0.776-0.438s-0.614 0.174-0.774 0.434l-0.002 0.004c-0.344 0.527-0.706 1.158-1.035 1.808l-0.054 0.118c-0.167 0.332-0.264 0.723-0.264 1.138 0 0.499 0.142 0.966 0.387 1.361l-0.006-0.011c0.273 0.456 0.707 0.793 1.217 0.943v1.066c-1.025-0.361-2.279-0.695-3.565-0.937l-0.168-0.026v-0.595c0.325-0.125 0.6-0.353 0.785-0.648 0.176-0.283 0.281-0.626 0.281-0.994 0-0.305-0.072-0.592-0.199-0.848l0.005 0.011c-0.259-0.519-0.505-0.945-0.772-1.357l0.033 0.054c-0.148-0.213-0.391-0.35-0.666-0.35s-0.518 0.137-0.665 0.347l-0.002 0.003c-0.269 0.421-0.516 0.855-0.739 1.302-0.123 0.244-0.194 0.532-0.194 0.837 0 0.368 0.105 0.711 0.285 1.002l-0.005-0.008c0.184 0.296 0.46 0.523 0.785 0.649v0.425c-0.732-0.113-1.577-0.177-2.437-0.177-0.268 0-0.535 0.006-0.801 0.019l0.038-0.001c-0.278 0.021-0.496 0.252-0.496 0.534 0 0.296 0.24 0.535 0.535 0.535 0.014 0 0.028-0.001 0.041-0.002l-0.002 0c0.597-0.043 6.038-0.311 12.99 3.663 0.748 0.426 1.525 0.8 2.325 1.12-0.887 0.487-1.815 0.894-2.774 1.219-0.542-0.912-1.040-1.662-1.568-2.389l0.061 0.088c-0.221-0.305-0.576-0.502-0.976-0.502s-0.756 0.196-0.974 0.498l-0.002 0.004c-0.141 0.195-0.302 0.426-0.473 0.678-2.18-0.776-4.694-1.225-7.313-1.225-0.5 0-0.996 0.016-1.488 0.049l0.067-0.003c-0.283 0.016-0.506 0.249-0.506 0.535 0 0.296 0.24 0.536 0.536 0.536 0.023 0 0.045-0.001 0.067-0.004l-0.003 0c2.719-0.16 5.444 0.188 8.034 1.030-0.244 0.385-0.492 0.8-0.731 1.226-0.263 0.459-0.418 1.008-0.418 1.594 0 0.612 0.169 1.185 0.464 1.673l-0.008-0.015c0.475 0.808 1.278 1.378 2.222 1.532l0.018 0.002v1.57c-1.362 0.285-2.75 0.432-4.142 0.438l-5.484 0.016c-0.007-0-0.015-0-0.022-0-0.295 0-0.534 0.239-0.534 0.534s0.239 0.534 0.534 0.534c0.008 0 0.016-0 0.024-0l-0.001 0 5.485-0.016c1.651-0.006 3.255-0.197 4.795-0.552l-0.146 0.028c0.008 0 0.015 0.006 0.024 0.006 0.087-0.002 0.168-0.024 0.239-0.063l-0.003 0.001c1.862-0.44 3.501-1.075 5.022-1.9l-0.106 0.053c1.36-0.743 2.5-1.464 3.592-2.247l-0.103 0.070c0.165-0.12 0.335-0.23 0.514-0.34 4.768-3.064 11.5-2.515 11.567-2.506 0.006 0 0.014 0 0.021 0 0.296 0 0.536-0.24 0.536-0.536 0-0.27-0.199-0.493-0.459-0.531l-0.003-0zM22.154 15.232c-0.164-0.266-0.261-0.589-0.261-0.935 0-0.313 0.080-0.608 0.22-0.865l-0.005 0.009c0.473-0.896 1.005-1.713 1.346-2.24 0.498 0.721 0.954 1.468 1.368 2.24 0.135 0.247 0.215 0.541 0.215 0.854 0 0.346-0.097 0.669-0.266 0.944l0.004-0.008c-0.262 0.462-0.751 0.768-1.311 0.768s-1.049-0.306-1.307-0.761l-0.004-0.007zM4.681 15.055c-0.083 0.148-0.235 0.249-0.412 0.258l-0.001 0c-0.178-0.008-0.331-0.109-0.413-0.255l-0.001-0.003c-0.075-0.122-0.12-0.271-0.12-0.429 0-0.134 0.032-0.261 0.088-0.373l-0.002 0.005c0.148-0.298 0.306-0.582 0.448-0.821 0.142 0.239 0.301 0.522 0.449 0.822 0.054 0.107 0.085 0.232 0.085 0.366 0 0.159-0.045 0.308-0.123 0.434l0.002-0.004zM8.221 15.254c-0.139-0.224-0.221-0.495-0.221-0.786 0-0.243 0.057-0.472 0.159-0.675l-0.004 0.009c0.31-0.627 0.649-1.206 0.913-1.628 0.264 0.423 0.602 1.001 0.911 1.628 0.098 0.194 0.155 0.424 0.155 0.666 0 0.291-0.082 0.562-0.225 0.793l0.004-0.006c-0.163 0.307-0.481 0.512-0.846 0.512s-0.683-0.205-0.844-0.507l-0.002-0.005zM14.232 20.392c0.545-1.031 1.609-1.722 2.835-1.724h0c0.001 0 0.002 0 0.003 0 1.119 0 2.103 0.576 2.673 1.448l0.008 0.012c-1.066 0.561-1.933 1.077-2.772 1.631l0.122-0.076c-1.11-0.388-2.057-0.824-2.955-1.337l0.086 0.045zM10.667 27.885c-0.753 0-1.448-0.4-1.826-1.051v0.001c-0.193-0.319-0.307-0.705-0.307-1.118 0-0.395 0.105-0.766 0.288-1.086l-0.006 0.011c0.599-1.059 1.175-1.946 1.796-2.797l-0.056 0.081c0.025-0.036 0.065-0.059 0.111-0.059s0.086 0.023 0.111 0.058l0 0c0.631 0.871 1.211 1.777 1.74 2.714 0.386 0.683 0.376 1.52-0.025 2.193-0.372 0.634-1.050 1.052-1.825 1.052-0 0-0 0-0.001 0h0zM15.343 28.617c-1.179 0.644-2.546 1.194-3.98 1.581l-0.133 0.030v-1.33c0.937-0.169 1.717-0.732 2.175-1.508l0.008-0.015c0.356-0.602 0.508-1.302 0.436-1.997 1.229 0.568 2.682 1.076 4.189 1.447l0.171 0.036c-0.795 0.555-1.731 1.137-2.697 1.671l-0.168 0.085zM27.199 21.85c-0 0-0 0-0 0-0.194 0-0.366-0.096-0.471-0.243l-0.001-0.002c-0.038-0.064-0.061-0.141-0.061-0.223 0-0.085 0.024-0.165 0.067-0.233l-0.001 0.002c0.153-0.26 0.32-0.506 0.468-0.712 0.147 0.205 0.314 0.452 0.468 0.712 0.041 0.066 0.066 0.145 0.066 0.231 0 0.082-0.023 0.159-0.062 0.225l0.001-0.002c-0.106 0.149-0.278 0.245-0.472 0.245-0 0-0 0-0 0h0zM8.268 8.536h1.36c0.133 0.908 0.905 1.597 1.839 1.6h4.8c0.002 0 0.005 0 0.008 0 1.031 0 1.866-0.836 1.866-1.866 0-0.959-0.723-1.748-1.653-1.854l-0.009-0.001c-0.253-1.231-1.326-2.143-2.612-2.146h-0c-0.245 0.004-0.488 0.040-0.722 0.11-0.393-1.009-1.356-1.71-2.484-1.71-1.287 0-2.36 0.914-2.606 2.129l-0.003 0.017c-0.939 0.107-1.662 0.896-1.662 1.855 0 1.031 0.836 1.866 1.866 1.866 0.004 0 0.008 0 0.011-0h-0.001zM13.867 5.336c0.884 0 1.6 0.716 1.6 1.6v0c0 0.295 0.238 0.533 0.533 0.533h0.267c0.442 0 0.8 0.358 0.8 0.8s-0.358 0.8-0.8 0.8h-4.8c-0.442 0-0.8-0.358-0.8-0.8s0.358-0.8 0.8-0.8h0.267c0.294-0.001 0.532-0.239 0.533-0.533v-0c0-0.884 0.716-1.6 1.6-1.6v0zM7.701 6.102c0.144-0.144 0.343-0.232 0.562-0.232 0.002 0 0.004 0 0.005 0h0.266c0.294-0.001 0.533-0.239 0.533-0.534 0 0 0 0 0 0v0c0-0.883 0.717-1.599 1.6-1.599 0.715 0 1.32 0.469 1.525 1.116l0.003 0.011c-0.486 0.392-0.819 0.94-0.941 1.551-0.654 0.071-1.199 0.478-1.464 1.043l-0.005 0.011h-1.518c-0.001 0-0.002 0-0.003 0-0.442 0-0.8-0.358-0.8-0.8 0-0.221 0.090-0.422 0.235-0.567l0-0zM22.133 5.868h4.8c1.030-0 1.866-0.836 1.866-1.866 0-0.956-0.718-1.743-1.644-1.853l-0.009-0.001c-0.252-1.232-1.327-2.146-2.615-2.146s-2.363 0.914-2.612 2.129l-0.003 0.017c-0.935 0.111-1.653 0.899-1.653 1.854 0 1.031 0.836 1.866 1.866 1.866 0.001 0 0.003 0 0.004 0h-0zM21.566 3.435c0.144-0.144 0.343-0.233 0.563-0.233 0.001 0 0.003 0 0.004 0h0.267c0.294-0.001 0.532-0.239 0.533-0.533v-0c0-0.884 0.716-1.6 1.6-1.6s1.6 0.716 1.6 1.6v0c0 0.295 0.238 0.533 0.533 0.533h0.267c0.442 0 0.8 0.358 0.8 0.8s-0.358 0.8-0.8 0.8h-4.8c-0.001 0-0.001 0-0.002 0-0.442 0-0.8-0.358-0.8-0.8 0-0.221 0.090-0.422 0.235-0.567l0-0z"></path>
</symbol>
<symbol id="icon-quality-assurance" viewBox="0 0 32 32">
<path fill="#fff" style="fill: var(--color1, #fff)" d="M16 18.134c0 0 0 0 0.001 0 0.214 0 0.413-0.062 0.581-0.168l-0.004 0.003c6.327-3.981 8.030-10.302 8.48-13.715 0.007-0.044 0.010-0.096 0.010-0.148 0-0.534-0.393-0.976-0.906-1.051l-0.006-0.001c-2.113-0.314-5.131-1.059-7.51-2.837-0.177-0.135-0.402-0.217-0.646-0.217s-0.468 0.081-0.648 0.218l0.003-0.002c-2.378 1.776-5.397 2.522-7.51 2.835-0.519 0.076-0.912 0.518-0.912 1.052 0 0.052 0.004 0.103 0.011 0.154l-0.001-0.006c0.45 3.414 2.153 9.737 8.48 13.717 0.163 0.104 0.362 0.166 0.576 0.166 0.001 0 0.001 0 0.002 0h-0zM8 4.106c2.234-0.331 5.435-1.127 8.007-3.037 2.558 1.911 5.758 2.706 7.993 3.045-0.426 3.229-2.033 9.203-7.991 12.953-0.003 0.001-0.006 0.001-0.009 0.001s-0.006-0-0.009-0.001l0 0c-5.958-3.75-7.565-9.727-7.991-12.961z"></path>
<path fill="#fff" style="fill: var(--color1, #fff)" d="M16.651 15.322c2.902-2.29 5.002-5.483 5.879-9.15l0.023-0.112c0.021-0.078 0.032-0.168 0.032-0.261 0-0.503-0.349-0.925-0.818-1.037l-0.007-0.001c-1.972-0.455-3.713-1.161-5.303-2.098l0.087 0.047c-0.156-0.094-0.344-0.15-0.545-0.15s-0.389 0.056-0.549 0.153l0.005-0.003c-1.502 0.889-3.243 1.595-5.089 2.026l-0.126 0.025c-0.475 0.114-0.823 0.536-0.823 1.038 0 0.093 0.012 0.183 0.034 0.269l-0.002-0.007c0.899 3.78 2.998 6.973 5.864 9.236l0.035 0.027c0.179 0.137 0.405 0.22 0.651 0.22s0.473-0.083 0.654-0.222l-0.003 0.002zM10.487 5.798c2.085-0.481 3.925-1.229 5.604-2.221l-0.091 0.050c1.59 0.941 3.432 1.691 5.386 2.152l0.134 0.027c-0.84 3.539-2.806 6.528-5.492 8.645l-0.033 0.025c-2.714-2.145-4.675-5.136-5.488-8.572l-0.021-0.105z"></path>
<path fill="#fff" style="fill: var(--color1, #fff)" d="M13.189 7.269c-0.076-0.207-0.272-0.352-0.502-0.352-0.295 0-0.534 0.239-0.534 0.534 0 0.077 0.017 0.151 0.046 0.217l-0.001-0.003c0.592 1.485 1.359 2.766 2.296 3.901l-0.020-0.024c0.099 0.119 0.246 0.194 0.411 0.194 0.295 0 0.534-0.239 0.534-0.534 0-0.13-0.046-0.249-0.123-0.341l0.001 0.001c-0.85-1.029-1.56-2.215-2.077-3.5l-0.032-0.090z"></path>
<path fill="#fff" style="fill: var(--color1, #fff)" d="M3.208 18.126c0.053 2.114 0.459 3.627 1.392 5.006-0.989-0.034-1.943 0.375-2.6 1.114-0.145 0.164-0.234 0.381-0.234 0.618 0 0.277 0.121 0.526 0.313 0.698l0.001 0.001 1.195 1.063c0.586 0.522 1.362 0.841 2.213 0.841 0.964 0 1.832-0.409 2.441-1.063l0.002-0.002c1.163 0.795 2.496 1.48 3.914 1.991l0.124 0.039c-0.794 0.613-1.301 1.565-1.303 2.635v0c0 0.514 0.418 0.933 0.934 0.934h1.6c1.17-0.001 2.199-0.605 2.792-1.518l0.008-0.013c0.601 0.926 1.63 1.53 2.8 1.531h1.6c0.514 0 0.933-0.418 0.934-0.934-0.001-1.070-0.507-2.022-1.293-2.63l-0.008-0.006c1.541-0.549 2.875-1.233 4.1-2.066l-0.062 0.040c0.611 0.656 1.479 1.065 2.443 1.065 0.851 0 1.628-0.319 2.217-0.844l-0.003 0.003 1.193-1.066c0.192-0.172 0.313-0.421 0.313-0.698 0-0.238-0.089-0.456-0.236-0.621l0.001 0.001c-0.612-0.686-1.499-1.115-2.486-1.115-0.040 0-0.080 0.001-0.12 0.002l0.006-0c0.933-1.379 1.337-2.891 1.393-5.006 1.785-0.069 3.205-1.531 3.209-3.325v-1.6c-0.001-0.515-0.418-0.933-0.934-0.934h-0c-0.841 0-1.651 0.32-2.266 0.896v-1.429c0-0.007 0.001-0.016 0.001-0.025 0-0.295-0.239-0.534-0.534-0.534s-0.534 0.239-0.534 0.534c0 0.009 0 0.017 0.001 0.026l-0-0.001v1.429c-0.592-0.555-1.39-0.896-2.267-0.896v0c-0.515 0.001-0.932 0.419-0.933 0.934v1.6c0.003 1.789 1.415 3.248 3.186 3.325l0.007 0c0 0.026 0 0.056 0 0.087 0 1.221-0.251 2.383-0.703 3.437l0.022-0.057c-0.125-0.595-0.395-1.113-0.771-1.535l0.003 0.003c-0.16-0.18-0.387-0.298-0.642-0.312l-0.002-0c-0.018-0.001-0.040-0.002-0.061-0.002-0.236 0-0.452 0.090-0.614 0.237l0.001-0.001-1.195 1.063c-0.685 0.614-1.114 1.501-1.114 2.488 0 0.779 0.267 1.495 0.714 2.063l-0.005-0.007c-0.754 0.491-1.542 0.93-2.357 1.314 0.217-0.45 0.331-0.942 0.331-1.44-0.001-0.515-0.419-0.932-0.934-0.933h-1.6c-1.133 0.001-2.187 0.578-2.8 1.531-0.601-0.926-1.63-1.53-2.8-1.531h-1.6c-0.515 0.001-0.933 0.418-0.934 0.934v0c0 0.499 0.114 0.991 0.331 1.44-0.92-0.436-1.693-0.874-2.431-1.361l0.073 0.045c0.442-0.561 0.709-1.277 0.709-2.055 0-0.988-0.429-1.875-1.111-2.486l-0.003-0.003-1.194-1.063c-0.162-0.147-0.378-0.236-0.614-0.236-0.021 0-0.042 0.001-0.063 0.002l0.003-0c-0.257 0.014-0.485 0.132-0.644 0.311l-0.001 0.001c-0.385 0.434-0.65 0.962-0.768 1.531-0.431-0.998-0.682-2.16-0.682-3.38 0-0.031 0-0.061 0-0.092l-0 0.005c1.778-0.077 3.191-1.536 3.194-3.325v-1.6c-0.001-0.515-0.418-0.932-0.932-0.934h-0c-0.842 0-1.653 0.32-2.267 0.896v-1.429c0-0.007 0.001-0.016 0.001-0.025 0-0.295-0.239-0.534-0.534-0.534s-0.534 0.239-0.534 0.534c0 0.009 0 0.017 0.001 0.026l-0-0.001v1.429c-0.591-0.555-1.389-0.896-2.266-0.896h-0c-0.515 0.001-0.933 0.418-0.934 0.934v1.6c0.004 1.794 1.424 3.256 3.202 3.326l0.006 0zM3.983 25.829l-1.094-0.971c0.411-0.409 0.977-0.662 1.603-0.662 0.579 0 1.107 0.216 1.508 0.573l-0.002-0.002 1.093 0.974c-0.411 0.409-0.977 0.662-1.602 0.662-0.579 0-1.107-0.217-1.509-0.573l0.002 0.002zM13.2 30.933h-1.463c0.074-1.192 1.059-2.131 2.263-2.133h1.463c-0.074 1.193-1.058 2.132-2.263 2.134h-0zM18.8 30.933c-1.204-0.001-2.189-0.94-2.263-2.126l-0-0.006h1.463c1.204 0.002 2.189 0.941 2.263 2.127l0 0.006h-1.463zM29.111 24.856l-1.094 0.974c-0.399 0.355-0.927 0.571-1.506 0.571-0.625 0-1.192-0.253-1.602-0.662l0 0 1.094-0.973c0.399-0.355 0.927-0.572 1.507-0.572 0.625 0 1.191 0.253 1.602 0.662l-0-0zM30.934 13.336v1.463c-0.002 1.204-0.941 2.189-2.127 2.263l-0.006 0v-1.463c0.002-1.204 0.941-2.189 2.127-2.263l0.006-0zM25.6 14.8v-1.463c1.193 0.074 2.132 1.058 2.134 2.263v1.463c-1.193-0.074-2.132-1.058-2.134-2.263v-0zM24.473 21.845l1.094-0.971c0.733 0.934 0.623 2.274-0.251 3.074l-0.034 0.034-1.080 0.96c-0.303-0.382-0.486-0.872-0.486-1.404 0-0.672 0.292-1.276 0.756-1.691l0.002-0.002zM18.8 25.6h1.463c-0.074 1.193-1.058 2.132-2.263 2.134h-1.463c0.074-1.193 1.058-2.132 2.263-2.134h0zM11.737 25.6h1.463c1.204 0.002 2.189 0.941 2.263 2.127l0 0.006h-1.463c-1.204-0.002-2.189-0.941-2.263-2.127l-0-0.006zM6.434 20.872l1.093 0.971c0.896 0.8 1.015 2.157 0.273 3.098l-1.081-0.96-0.034-0.034c-0.453-0.416-0.736-1.011-0.736-1.673 0-0.531 0.183-1.020 0.488-1.406l-0.004 0.005zM6.4 13.337v1.463c-0.002 1.205-0.941 2.189-2.127 2.263l-0.006 0v-1.463c0.002-1.204 0.941-2.189 2.127-2.263l0.006-0zM1.066 13.337c1.193 0.074 2.132 1.058 2.134 2.263v1.463c-1.193-0.074-2.132-1.058-2.134-2.263v-1.463z"></path>
</symbol>
<symbol id="icon-s-honest-payment" viewBox="0 0 31 32">
<path fill="#fff" style="fill: var(--color1, #fff)" d="M15.621 8.274c-1.696-0.207-2.655-0.399-2.655-1.814 0-1.25 1.514-1.816 2.593-1.816 1.96 0 2.629 1.094 2.661 1.152 0.089 0.168 0.263 0.281 0.464 0.281 0.289 0 0.523-0.234 0.523-0.523 0-0.103-0.030-0.199-0.081-0.28l0.001 0.002c-0.037-0.062-0.835-1.463-3.049-1.655v-1.051c0-0.286-0.232-0.518-0.518-0.518s-0.518 0.232-0.518 0.518v1.068c-1.593 0.176-3.112 1.152-3.112 2.822 0 2.401 2.075 2.661 3.568 2.847 1.695 0.212 2.655 0.404 2.655 1.819 0 2.547-4.533 1.893-5.337 1.189-0.092-0.083-0.214-0.134-0.349-0.134-0.288 0-0.521 0.233-0.521 0.521 0 0.134 0.051 0.257 0.134 0.349l-0-0c0.088 0.088 0.887 0.809 2.961 0.928v1.038c0 0.286 0.232 0.518 0.518 0.518s0.518-0.232 0.518-0.518v-1.038c2.282-0.181 3.111-1.555 3.111-2.832 0-2.422-2.075-2.681-3.568-2.873zM16.077 30.575v-5.704c0-0.286-0.232-0.518-0.518-0.518s-0.518 0.232-0.518 0.518v5.705c0 0.286 0.232 0.518 0.518 0.518s0.518-0.232 0.518-0.518v0zM18.67 27.982v-7.259c0-0.286-0.232-0.518-0.518-0.518s-0.518 0.232-0.518 0.518v0 7.259c0 0.286 0.232 0.518 0.518 0.518s0.518-0.232 0.518-0.518v0zM13.484 27.982v-4.667c0-0.287-0.232-0.519-0.519-0.519s-0.519 0.232-0.519 0.519v0 4.667c0 0.287 0.232 0.519 0.519 0.519s0.519-0.232 0.519-0.519v0z"></path>
<path fill="#fff" style="fill: var(--color1, #fff)" d="M23.566 5.127c-1.431-3.051-4.477-5.127-8.007-5.127s-6.577 2.075-7.985 5.073l-0.023 0.054c-6.234 2.11-7.551 5.398-7.551 7.815v16.077c0 1.146 0.929 2.075 2.075 2.075s2.075-0.929 2.075-2.075v0-1.556h0.518c1.432 0 2.593-1.161 2.593-2.593v0-1.038h0.518c0 0 0.001 0 0.001 0 1.432 0 2.593-1.161 2.593-2.593v0c0-1.872-0.125-3.676 0.518-4.968 1.32 0.84 2.928 1.338 4.652 1.338s3.332-0.499 4.688-1.359l-0.036 0.021c0.653 1.281 0.518 2.987 0.518 4.968 0 1.432 1.161 2.593 2.593 2.593v0h0.518v1.038c0 1.432 1.161 2.593 2.593 2.593v0h0.519v1.556c-0 0.013-0 0.028-0 0.044 0 1.146 0.929 2.075 2.075 2.075s2.075-0.929 2.075-2.075c0-0.015-0-0.031-0-0.046l0 0.002v-16.077c0.031-2.417-1.285-5.705-7.519-7.815zM9.335 21.239c0 0.859-0.697 1.556-1.556 1.556h-0.518v-8.298c0-0.286-0.232-0.518-0.518-0.518s-0.518 0.232-0.518 0.518v0 10.373c0 0.859-0.697 1.556-1.556 1.556h-0.518v-9.335c0-0.287-0.232-0.519-0.519-0.519s-0.519 0.232-0.519 0.519v0 11.929c0 0.573-0.464 1.037-1.037 1.037s-1.037-0.464-1.037-1.037v0-16.077c0-2.827 2.033-5.026 6.047-6.545-0.215 0.723-0.339 1.554-0.339 2.413 0 2.769 1.284 5.239 3.288 6.846l0.017 0.013c-0.871 1.582-0.716 3.652-0.716 5.57zM7.779 8.794c0-4.296 3.483-7.779 7.779-7.779s7.779 3.483 7.779 7.779v0c0 4.296-3.483 7.779-7.779 7.779s-7.779-3.483-7.779-7.779v0zM30.080 29.019c0 0.573-0.464 1.037-1.037 1.037s-1.037-0.464-1.037-1.037v0-11.928c0-0.286-0.232-0.518-0.518-0.518s-0.518 0.232-0.518 0.518v0 9.335h-0.519c-0.859 0-1.555-0.697-1.555-1.556v-10.373c0-0.287-0.232-0.519-0.519-0.519s-0.519 0.232-0.519 0.519v0 8.298h-0.518c-0.859 0-1.556-0.697-1.556-1.556 0-1.908 0.155-3.998-0.715-5.57 2.022-1.62 3.305-4.088 3.305-6.857 0-0.861-0.124-1.692-0.355-2.478l0.016 0.062c4.014 1.52 6.047 3.718 6.047 6.545v16.077z"></path>
</symbol>
<symbol id="icon-star-authenticity" viewBox="0 0 35 32">
<path fill="#fff" style="fill: var(--color1, #fff)" d="M32.671 14.651c0.592-0.576 0.8-1.423 0.545-2.21-0.254-0.776-0.918-1.349-1.73-1.467l-0.012-0.001-7.282-1.058c-0.316-0.047-0.578-0.244-0.714-0.515l-0.003-0.005-3.256-6.599c-0.357-0.718-1.085-1.202-1.926-1.202-0.003 0-0.005 0-0.008 0h0c-0.826 0-1.568 0.461-1.934 1.202l-3.257 6.599c-0.139 0.276-0.401 0.473-0.711 0.519l-0.005 0.001-7.282 1.059c-0.818 0.119-1.486 0.68-1.741 1.467-0.256 0.787-0.046 1.634 0.545 2.21l5.269 5.136c0.178 0.173 0.288 0.415 0.288 0.683 0 0.057-0.005 0.112-0.014 0.167l0.001-0.006-1.242 7.253c-0.141 0.815 0.189 1.623 0.857 2.109 0.35 0.26 0.79 0.416 1.267 0.416 0.368 0 0.714-0.093 1.017-0.257l-0.011 0.006 6.512-3.424c0.129-0.069 0.281-0.109 0.443-0.109s0.315 0.041 0.449 0.112l-0.005-0.003 6.513 3.424c0.291 0.157 0.637 0.249 1.004 0.249 0.477 0 0.917-0.155 1.274-0.418l-0.006 0.004c0.541-0.394 0.889-1.025 0.889-1.738 0-0.131-0.012-0.259-0.034-0.384l0.002 0.013-1.245-7.253c-0.009-0.048-0.014-0.103-0.014-0.16 0-0.267 0.11-0.509 0.288-0.682l0-0 5.269-5.137zM25.941 20.834l1.243 7.253c0.010 0.051 0.015 0.109 0.015 0.169 0 0.313-0.154 0.591-0.391 0.76l-0.003 0.002c-0.154 0.116-0.349 0.185-0.559 0.185-0.163 0-0.316-0.041-0.449-0.114l0.005 0.002-6.513-3.425c-0.291-0.156-0.637-0.247-1.004-0.247s-0.713 0.091-1.016 0.253l0.012-0.006-6.511 3.425c-0.128 0.070-0.281 0.112-0.444 0.112-0.211 0-0.405-0.069-0.562-0.186l0.002 0.002c-0.24-0.172-0.395-0.45-0.395-0.764 0-0.059 0.006-0.117 0.016-0.174l-0.001 0.006 1.243-7.251c0.020-0.11 0.031-0.236 0.031-0.365 0-0.605-0.249-1.152-0.65-1.543l-0-0-5.27-5.137c-0.179-0.17-0.29-0.41-0.29-0.676 0-0.107 0.018-0.211 0.052-0.307l-0.002 0.007c0.114-0.354 0.4-0.595 0.767-0.649l7.282-1.058c0.717-0.106 1.31-0.553 1.618-1.167l0.006-0.012 3.257-6.599c0.154-0.316 0.473-0.53 0.842-0.53 0.004 0 0.007 0 0.011 0h-0.001c0.371 0 0.69 0.198 0.855 0.53l3.257 6.599c0.313 0.637 0.92 1.078 1.623 1.179l7.282 1.058c0.366 0.054 0.654 0.296 0.768 0.649 0.114 0.352 0.025 0.717-0.24 0.976l-5.269 5.136c-0.402 0.392-0.652 0.939-0.652 1.545 0 0.129 0.011 0.255 0.033 0.377l-0.002-0.013z"></path>
<path fill="#fff" style="fill: var(--color1, #fff)" d="M5.543 21.501l-3.040 1.754c-0.419 0.242-0.928 0.147-1.136-0.213-0.207-0.36-0.035-0.847 0.384-1.089l3.039-1.755c0.419-0.241 0.928-0.146 1.136 0.213 0.207 0.36 0.035 0.848-0.384 1.090zM27.512 6.751l2.32-2.632c0.32-0.363 0.328-0.88 0.016-1.154-0.311-0.275-0.823-0.203-1.143 0.16l-2.32 2.632c-0.32 0.363-0.328 0.881-0.016 1.155 0.311 0.274 0.823 0.202 1.143-0.16zM30.725 22.757l3.039 1.754c0.419 0.242 0.928 0.147 1.136-0.213 0.207-0.359 0.034-0.847-0.384-1.089l-3.040-1.754c-0.418-0.242-0.927-0.149-1.135 0.213-0.207 0.359-0.035 0.847 0.384 1.089zM9.155 6.751l-2.32-2.632c-0.32-0.363-0.327-0.88-0.016-1.154 0.312-0.275 0.824-0.203 1.144 0.16l2.32 2.632c0.32 0.363 0.328 0.881 0.016 1.155-0.311 0.274-0.823 0.202-1.143-0.16z"></path>
</symbol>
<symbol id="icon-worldwide-shipping" viewBox="0 0 32 32">
<path fill="#fff" style="fill: var(--color1, #fff)" d="M21.533 4.301v-2.949c0-0.442-0.358-0.8-0.8-0.8v0h-2.402c-0.442 0-0.8 0.358-0.8 0.8v0.47l-3.569 0.65c-0.408 0.074-0.782 0.273-1.073 0.568l-2.61 2.679c-0.215 0.216-0.348 0.515-0.348 0.844 0 0.359 0.158 0.68 0.407 0.9l0.001 0.001c0.214 0.188 0.489 0.292 0.774 0.29 0.252 0 0.499-0.077 0.708-0.219l2.572-1.741 0.006 0.013c0.243 0.596 0.818 1.008 1.49 1.008 0.090 0 0.179-0.007 0.265-0.022l-0.009 0.001 1.125-0.184c0.163-0.027 0.329-0.022 0.488 0.017l0.608 0.154c0.181 0.044 0.389 0.070 0.604 0.070 0.345 0 0.674-0.066 0.977-0.186l-0.018 0.006c0.949-0.38 1.607-1.292 1.607-2.357 0-0.004 0-0.009-0-0.013v0.001zM20.733 4.301c0 0.002 0 0.005 0 0.007 0 0.731-0.451 1.356-1.090 1.613l-0.012 0.004c-0.344 0.132-0.719 0.158-1.078 0.075l-0.605-0.152c-0.144-0.037-0.309-0.057-0.478-0.057-0.117 0-0.232 0.010-0.343 0.029l0.012-0.002-1.127 0.184c-0.038 0.006-0.082 0.010-0.127 0.010-0.325 0-0.605-0.194-0.73-0.472l-0.002-0.005 1.545-0.44c0.421-0.122 0.805-0.348 1.115-0.657 0.080-0.073 0.129-0.178 0.129-0.294 0-0.221-0.179-0.4-0.4-0.4-0.117 0-0.221 0.050-0.295 0.129l-0 0c-0.216 0.213-0.48 0.369-0.772 0.454l-1.972 0.56c-0.177 0.042-0.346 0.112-0.503 0.205l-2.631 1.782c-0.068 0.051-0.154 0.081-0.246 0.081-0.097 0-0.186-0.033-0.257-0.089l0.001 0.001c-0.084-0.073-0.138-0.178-0.141-0.296v-0.001c-0-0.003-0-0.007-0-0.012 0-0.107 0.044-0.203 0.114-0.273l0.006-0.006 2.612-2.681c0.17-0.173 0.391-0.295 0.639-0.341l0.007-0.001 3.568-0.649c0.375-0.070 0.656-0.395 0.657-0.785v-0.471h2.401v2.95zM27.729 22.085h2.949c0.442 0 0.8-0.359 0.8-0.8v-2.402c0-0.442-0.358-0.8-0.8-0.8v0h-0.47l-0.65-3.569c-0.079-0.424-0.281-0.791-0.568-1.073l-0-0-2.679-2.61c-0.216-0.215-0.515-0.348-0.844-0.348-0.358 0-0.68 0.158-0.9 0.407l-0.001 0.001c-0.188 0.214-0.292 0.489-0.29 0.774 0 0.252 0.077 0.499 0.219 0.708l1.741 2.572-0.013 0.006c-0.595 0.244-1.007 0.818-1.007 1.489 0 0.090 0.007 0.179 0.022 0.265l-0.001-0.009 0.184 1.125c0.028 0.163 0.022 0.328-0.017 0.488l-0.153 0.608c-0.045 0.182-0.070 0.39-0.070 0.605 0 0.344 0.066 0.673 0.186 0.975l-0.006-0.018c0.381 0.948 1.292 1.606 2.358 1.606 0.004 0 0.009 0 0.013-0h-0.001zM27.729 21.285c-0.002 0-0.005 0-0.007 0-0.731 0-1.356-0.451-1.613-1.090l-0.004-0.012c-0.077-0.197-0.122-0.425-0.122-0.663 0-0.147 0.017-0.29 0.049-0.427l-0.003 0.013 0.152-0.605c0.065-0.265 0.075-0.541 0.030-0.809l-0.184-1.127c-0.006-0.038-0.010-0.082-0.010-0.127 0-0.325 0.194-0.605 0.472-0.73l0.005-0.002 0.44 1.545c0.122 0.421 0.348 0.805 0.657 1.115 0.073 0.074 0.174 0.12 0.286 0.12 0.221 0 0.4-0.179 0.4-0.4 0-0.112-0.046-0.213-0.12-0.286l-0-0c-0.208-0.209-0.365-0.469-0.451-0.759l-0.003-0.013-0.56-1.972c-0.047-0.19-0.117-0.358-0.21-0.511l0.005 0.008-1.78-2.63c-0.051-0.068-0.082-0.154-0.082-0.247 0-0.097 0.033-0.186 0.089-0.256l-0.001 0.001c0.073-0.084 0.178-0.138 0.296-0.141h0.001c0.003-0 0.007-0 0.012-0 0.107 0 0.203 0.044 0.273 0.114l0.006 0.006 2.681 2.612c0.179 0.174 0.298 0.4 0.343 0.646l0.649 3.569c0.070 0.375 0.395 0.656 0.785 0.657h0.471v2.401h-2.949zM11.034 28.281v2.949c0 0.442 0.358 0.8 0.8 0.8h2.401c0.442 0 0.8-0.358 0.8-0.8v-0.471l3.569-0.649c0.408-0.075 0.783-0.273 1.073-0.569l2.611-2.679c0.215-0.216 0.348-0.515 0.348-0.844 0-0.358-0.158-0.68-0.407-0.9l-0.001-0.001c-0.214-0.188-0.489-0.292-0.774-0.29-0.252 0.001-0.499 0.077-0.708 0.219l-2.572 1.741-0.006-0.013c-0.243-0.596-0.818-1.008-1.49-1.008-0.090 0-0.179 0.007-0.265 0.022l0.009-0.001-1.125 0.185c-0.060 0.011-0.13 0.017-0.201 0.017-0.102 0-0.202-0.013-0.297-0.036l0.008 0.002-0.607-0.153c-0.182-0.045-0.39-0.070-0.605-0.070-0.344 0-0.673 0.066-0.975 0.186l0.018-0.006c-0.948 0.381-1.606 1.292-1.606 2.358 0 0.005 0 0.009 0 0.014v-0.001zM11.834 28.281c0-0.002-0-0.005-0-0.008 0-0.731 0.451-1.356 1.089-1.613l0.012-0.004c0.344-0.132 0.718-0.158 1.078-0.075l0.605 0.152c0.265 0.065 0.541 0.075 0.809 0.030l1.127-0.184c0.038-0.006 0.082-0.010 0.127-0.010 0.325 0 0.605 0.194 0.73 0.472l0.002 0.005-1.546 0.44c-0.421 0.122-0.804 0.348-1.114 0.657-0.074 0.073-0.12 0.174-0.12 0.286 0 0.221 0.179 0.4 0.4 0.4 0.112 0 0.213-0.046 0.286-0.12l0-0c0.215-0.214 0.48-0.37 0.771-0.455l1.973-0.56c0.19-0.047 0.358-0.117 0.511-0.21l-0.008 0.005 2.631-1.782c0.068-0.051 0.153-0.081 0.246-0.081 0.097 0 0.186 0.033 0.257 0.089l-0.001-0.001c0.087 0.075 0.138 0.183 0.141 0.296 0 0.004 0 0.008 0 0.013 0 0.106-0.043 0.202-0.113 0.271l-0.006 0.006-2.612 2.681c-0.175 0.179-0.401 0.298-0.647 0.343l-3.569 0.649c-0.375 0.070-0.656 0.395-0.657 0.785v0.471h-2.4v-2.949zM3.749 11.034h-2.949c-0.442 0-0.8 0.358-0.8 0.8v0 2.402c0 0.442 0.358 0.8 0.8 0.8h0.471l0.649 3.569c0.075 0.408 0.273 0.782 0.569 1.073l2.678 2.609c0.216 0.215 0.515 0.348 0.844 0.348 0.359 0 0.68-0.158 0.9-0.407l0.001-0.001c0.188-0.214 0.292-0.489 0.291-0.774-0.001-0.252-0.077-0.499-0.219-0.708l-1.741-2.571 0.013-0.006c0.595-0.244 1.007-0.818 1.007-1.489 0-0.090-0.007-0.179-0.022-0.265l0.001 0.009-0.184-1.125c-0.011-0.061-0.017-0.131-0.017-0.202 0-0.101 0.012-0.2 0.035-0.294l-0.002 0.008 0.154-0.608c0.044-0.181 0.070-0.389 0.070-0.604 0-0.345-0.066-0.675-0.186-0.977l0.006 0.018c-0.381-0.948-1.292-1.606-2.358-1.606-0.004 0-0.009 0-0.013 0h0.001zM3.749 11.834c0.002 0 0.005-0 0.008-0 0.731 0 1.356 0.451 1.613 1.089l0.004 0.012c0.132 0.344 0.157 0.719 0.075 1.078l-0.152 0.605c-0.066 0.265-0.075 0.541-0.030 0.809l0.184 1.127c0.006 0.038 0.010 0.082 0.010 0.127 0 0.325-0.194 0.605-0.472 0.73l-0.005 0.002-0.44-1.545c-0.13-0.438-0.357-0.813-0.658-1.115l0 0c-0.073-0.080-0.178-0.129-0.294-0.129-0.221 0-0.4 0.179-0.4 0.4 0 0.117 0.050 0.221 0.129 0.295l0 0c0.214 0.216 0.369 0.48 0.454 0.772l0.56 1.972c0.043 0.177 0.113 0.346 0.205 0.503l1.782 2.631c0.051 0.068 0.082 0.154 0.082 0.247 0 0.097-0.033 0.186-0.089 0.256l0.001-0.001c-0.073 0.084-0.178 0.138-0.296 0.141h-0.001c-0.003 0-0.007 0-0.012 0-0.107 0-0.203-0.044-0.273-0.114l-0-0-0.007-0.006-2.68-2.612c-0.173-0.17-0.295-0.391-0.341-0.639l-0.001-0.007-0.649-3.568c-0.070-0.376-0.395-0.656-0.786-0.657h-0.47v-2.401h2.949z"></path>
<path fill="#fff" style="fill: var(--color1, #fff)" d="M23.206 13.549c-1.167-3.001-4.033-5.090-7.387-5.090-0.002 0-0.003 0-0.005 0h0c-0.005 0-0.010-0-0.016-0-0.763 0-1.5 0.109-2.198 0.312l0.055-0.014-0.009 0.004c-1.985 0.573-3.609 1.852-4.617 3.541l-0.020 0.036c-0.017 0.029-0.030 0.062-0.035 0.098l-0 0.001c-0.119 0.158-0.224 0.337-0.305 0.529l-0.006 0.017-0.020 0.043c-0.465 0.978-0.737 2.124-0.737 3.335 0 4.369 3.54 7.911 7.908 7.915h0c1.816 0.001 3.576-0.625 4.983-1.773 0.114 0.009 0.221-0.056 0.264-0.162 0.008-0.022 0.013-0.048 0.014-0.075l0-0.001c1.627-1.454 2.647-3.559 2.647-5.903 0-1.012-0.19-1.979-0.536-2.868l0.018 0.054zM13.619 9.321c0.349 0.428 0.864 0.689 1.416 0.715 0.151 0.005 0.302-0.002 0.453-0.019 0.243-0.056 0.497-0.025 0.72 0.085 0.106 0.057 0.176 0.167 0.176 0.294 0 0.018-0.001 0.036-0.004 0.053l0-0.002c-0.059 0.107-0.136 0.198-0.229 0.27l-0.002 0.001c-0.23 0.157-0.379 0.417-0.381 0.712v0c0.018 0.177 0.113 0.339 0.26 0.44 0.218 0.146 0.486 0.194 0.741 0.135 0.141-0.038 0.279-0.088 0.41-0.149 0.12-0.059 0.248-0.104 0.378-0.13 0.334-0.047 0.678 0.174 1.029 0.425 0.176 0.127 0.462 0.367 0.403 0.55-0.045 0.14-0.216 0.241-0.395 0.348-0.073 0.043-0.145 0.086-0.228 0.143-0.292 0.221-0.612 0.403-0.952 0.539-0.103 0.036-0.234 0.073-0.368 0.102l-0.023 0.004c-0.294 0.052-0.557 0.152-0.794 0.291l0.011-0.006c-0.486 0.314-0.426 0.816-0.389 1.117-0.012-0.004-0.022-0.007-0.031-0.011l0.003 0.001c-0.046-0.019-0.090-0.040-0.135-0.060-0.136-0.093-0.305-0.148-0.486-0.148-0.481 0-0.872 0.39-0.872 0.872 0 0.015 0 0.029 0.001 0.044l-0-0.002c0 0.627 0.466 0.993 0.84 1.287l0.131 0.104c0.082 0.075 0.156 0.16 0.221 0.251-0.531-0.134-1.064-0.265-1.595-0.395-0.447-0.107-0.899-0.241-1.083-0.571-0.067-0.138-0.116-0.298-0.14-0.466l-0.001-0.009c-0.037-0.275-0.132-0.522-0.273-0.737l0.004 0.007c-0.265-0.294-0.622-0.501-1.026-0.572l-0.011-0.002-0.048-0.014c-0.397-0.118-0.615-0.26-0.685-0.446-0.011-0.058-0.018-0.125-0.018-0.193 0-0.188 0.048-0.364 0.132-0.518l-0.003 0.006c0.104-0.212 0.165-0.461 0.165-0.725 0-0.097-0.008-0.193-0.024-0.286l0.001 0.010c-0.062-0.265-0.236-0.48-0.469-0.596l-0.005-0.002c-0.131-0.063-0.285-0.1-0.447-0.1-0.039 0-0.078 0.002-0.116 0.006l0.005-0c0.921-1.24 2.199-2.168 3.681-2.637l0.052-0.014zM14.704 23.662l0.003 0.002c-0.118-0.066-0.217-0.128-0.312-0.195l0.010 0.007c-0.21-0.132-0.358-0.346-0.401-0.595l-0.001-0.005c0.016-0.168 0.070-0.321 0.153-0.453l-0.003 0.004c0.059-0.126 0.104-0.259 0.131-0.395 0.018-0.131 0.065-0.248 0.134-0.348l-0.002 0.003c0.075-0.069 0.164-0.125 0.261-0.164l0.006-0.002c0.11-0.049 0.216-0.109 0.313-0.18 0.211-0.168 0.386-0.376 0.514-0.614 0.051-0.090 0.107-0.202 0.158-0.318l0.010-0.025c0.071-0.184 0.169-0.357 0.292-0.511 0.264-0.279 0.785-0.072 0.996 0.029 0.421 0.192 0.783 0.436 1.098 0.73l-0.002-0.002 0.030 0.031c0.343 0.361 0.706 0.702 1.090 1.018 0.318 0.246 0.665 0.449 1.035 0.605-1.214 0.913-2.746 1.462-4.407 1.462-0.39 0-0.774-0.030-1.148-0.089l0.042 0.005zM20.684 21.907c-0.447-0.168-0.834-0.384-1.181-0.648l0.011 0.008c-0.367-0.304-0.715-0.63-1.043-0.975l-0.030-0.031c-0.353-0.335-0.764-0.615-1.214-0.821l-0.028-0.011c-0.668-0.321-1.256-0.292-1.609 0.083-0.159 0.187-0.291 0.405-0.384 0.641l-0.005 0.016c-0.047 0.104-0.094 0.207-0.145 0.296-0.094 0.176-0.222 0.331-0.376 0.456-0.064 0.045-0.136 0.087-0.213 0.121l-0.008 0.003c-0.161 0.066-0.308 0.164-0.43 0.287-0.134 0.167-0.222 0.366-0.256 0.578-0.019 0.094-0.047 0.186-0.085 0.275-0.127 0.21-0.199 0.448-0.211 0.693 0.004 0.192 0.060 0.379 0.163 0.542-3.038-0.963-5.202-3.758-5.202-7.059 0-1.128 0.253-2.197 0.705-3.154l-0.019 0.045 0.020-0.044c0.077-0.198 0.184-0.369 0.317-0.514l-0.001 0.001c0.047-0.047 0.104-0.086 0.166-0.113l0.004-0.001c0.106-0.049 0.23-0.078 0.361-0.079h0.001c0.004-0 0.009-0 0.014-0 0.076 0 0.149 0.016 0.214 0.046l-0.003-0.001c0.099 0.051 0.17 0.142 0.192 0.252l0 0.002c0.023 0.237-0.022 0.475-0.128 0.687-0.168 0.333-0.207 0.716-0.108 1.077 0.177 0.463 0.671 0.658 1.031 0.764l0.053 0.015c0.286 0.046 0.551 0.179 0.758 0.38 0.094 0.159 0.153 0.336 0.175 0.52 0.033 0.219 0.1 0.431 0.198 0.629 0.29 0.518 0.887 0.699 1.422 0.828 0.575 0.14 1.151 0.282 1.728 0.428 0.116 0.038 0.241 0.036 0.356-0.005 0.132-0.053 0.229-0.17 0.251-0.311l0-0.002c0.060-0.401-0.493-0.883-0.503-0.889l-0.138-0.11c-0.328-0.258-0.638-0.502-0.638-0.872-0-0.002-0-0.005-0-0.008 0-0.157 0.093-0.293 0.226-0.355l0.002-0.001c0.099-0.041 0.182-0.011 0.374 0.079 0.053 0.024 0.105 0.050 0.153 0.070 0.075 0.041 0.164 0.065 0.259 0.065 0.144 0 0.274-0.055 0.372-0.146l-0 0c0.085-0.094 0.137-0.22 0.137-0.358 0-0.036-0.003-0.070-0.010-0.104l0.001 0.003c-0.043-0.352-0.026-0.499 0.151-0.613 0.192-0.105 0.401-0.179 0.616-0.215 0.152-0.032 0.302-0.073 0.45-0.123 0.417-0.169 0.777-0.376 1.103-0.625l-0.011 0.008c0.054-0.038 0.114-0.072 0.176-0.109 0.282-0.126 0.508-0.355 0.631-0.64 0.124-0.381-0.075-0.766-0.597-1.142-0.334-0.24-0.841-0.602-1.415-0.52-0.193 0.036-0.364 0.095-0.524 0.174l0.012-0.005c-0.104 0.049-0.212 0.088-0.322 0.119-0.028 0.007-0.061 0.011-0.095 0.011-0.080 0-0.154-0.022-0.218-0.061l0.002 0.001c-0.039-0.028-0.041-0.050-0.041-0.057-0.007-0.069 0.079-0.154 0.211-0.276 0.163-0.128 0.292-0.295 0.374-0.485 0.021-0.071 0.034-0.152 0.034-0.237 0-0.311-0.168-0.583-0.419-0.73l-0.004-0.002c-0.217-0.121-0.476-0.193-0.751-0.193-0.106 0-0.21 0.011-0.31 0.031l0.010-0.002c-0.097 0.012-0.21 0.019-0.324 0.019-0.019 0-0.038-0-0.057-0.001l0.003 0c-0.33-0.019-0.628-0.146-0.86-0.346l0.002 0.002c0.487-0.114 1.045-0.18 1.62-0.18 4.074 0 7.376 3.302 7.376 7.376 0 2.207-0.969 4.187-2.505 5.539l-0.008 0.007z"></path>
<path fill="none" stroke="#fff" style="stroke: var(--color1, #fff)" stroke-linejoin="miter" stroke-linecap="butt" stroke-miterlimit="4" stroke-width="0.5647" d="M23.206 13.549c-1.167-3.001-4.033-5.090-7.387-5.090-0.002 0-0.003 0-0.005 0h0c-0.005 0-0.010-0-0.016-0-0.763 0-1.5 0.109-2.198 0.312l0.055-0.014-0.009 0.004c-1.985 0.573-3.609 1.852-4.617 3.541l-0.020 0.036c-0.017 0.029-0.030 0.062-0.035 0.098l-0 0.001c-0.119 0.158-0.224 0.337-0.305 0.529l-0.006 0.017-0.020 0.043c-0.465 0.978-0.737 2.124-0.737 3.335 0 4.369 3.54 7.911 7.908 7.915h0c1.816 0.001 3.576-0.625 4.983-1.773 0.114 0.009 0.221-0.056 0.264-0.162 0.008-0.022 0.013-0.048 0.014-0.075l0-0.001c1.627-1.454 2.647-3.559 2.647-5.903 0-1.012-0.19-1.979-0.536-2.868l0.018 0.054zM13.619 9.321c0.349 0.428 0.864 0.689 1.416 0.715 0.151 0.005 0.302-0.002 0.453-0.019 0.243-0.056 0.497-0.025 0.72 0.085 0.106 0.057 0.176 0.167 0.176 0.294 0 0.018-0.001 0.036-0.004 0.053l0-0.002c-0.059 0.107-0.136 0.198-0.229 0.27l-0.002 0.001c-0.23 0.157-0.379 0.417-0.381 0.712v0c0.018 0.177 0.113 0.339 0.26 0.44 0.218 0.146 0.486 0.194 0.741 0.135 0.141-0.038 0.279-0.088 0.41-0.149 0.12-0.059 0.248-0.104 0.378-0.13 0.334-0.047 0.678 0.174 1.029 0.425 0.176 0.127 0.462 0.367 0.403 0.55-0.045 0.14-0.216 0.241-0.395 0.348-0.073 0.043-0.145 0.086-0.228 0.143-0.292 0.221-0.612 0.403-0.952 0.539-0.103 0.036-0.234 0.073-0.368 0.102l-0.023 0.004c-0.294 0.052-0.557 0.152-0.794 0.291l0.011-0.006c-0.486 0.314-0.426 0.816-0.389 1.117-0.012-0.004-0.022-0.007-0.031-0.011l0.003 0.001c-0.046-0.019-0.090-0.040-0.135-0.060-0.136-0.093-0.305-0.148-0.486-0.148-0.481 0-0.872 0.39-0.872 0.872 0 0.015 0 0.029 0.001 0.044l-0-0.002c0 0.627 0.466 0.993 0.84 1.287l0.131 0.104c0.082 0.075 0.156 0.16 0.221 0.251-0.531-0.134-1.064-0.265-1.595-0.395-0.447-0.107-0.899-0.241-1.083-0.571-0.067-0.138-0.116-0.298-0.14-0.466l-0.001-0.009c-0.037-0.275-0.132-0.522-0.273-0.737l0.004 0.007c-0.265-0.294-0.622-0.501-1.026-0.572l-0.011-0.002-0.048-0.014c-0.397-0.118-0.615-0.26-0.685-0.446-0.011-0.058-0.018-0.125-0.018-0.193 0-0.188 0.048-0.364 0.132-0.518l-0.003 0.006c0.104-0.212 0.165-0.461 0.165-0.725 0-0.097-0.008-0.193-0.024-0.286l0.001 0.010c-0.062-0.265-0.236-0.48-0.469-0.596l-0.005-0.002c-0.131-0.063-0.285-0.1-0.447-0.1-0.039 0-0.078 0.002-0.116 0.006l0.005-0c0.921-1.24 2.199-2.168 3.681-2.637l0.052-0.014zM14.704 23.662l0.003 0.002c-0.118-0.066-0.217-0.128-0.312-0.195l0.010 0.007c-0.21-0.132-0.358-0.346-0.401-0.595l-0.001-0.005c0.016-0.168 0.070-0.321 0.153-0.453l-0.003 0.004c0.059-0.126 0.104-0.259 0.131-0.395 0.018-0.131 0.065-0.248 0.134-0.348l-0.002 0.003c0.075-0.069 0.164-0.125 0.261-0.164l0.006-0.002c0.11-0.049 0.216-0.109 0.313-0.18 0.211-0.168 0.386-0.376 0.514-0.614 0.051-0.090 0.107-0.202 0.158-0.318l0.010-0.025c0.071-0.184 0.169-0.357 0.292-0.511 0.264-0.279 0.785-0.072 0.996 0.029 0.421 0.192 0.783 0.436 1.098 0.73l-0.002-0.002 0.030 0.031c0.343 0.361 0.706 0.702 1.090 1.018 0.318 0.246 0.665 0.449 1.035 0.605-1.214 0.913-2.746 1.462-4.407 1.462-0.39 0-0.774-0.030-1.148-0.089l0.042 0.005zM20.684 21.907c-0.447-0.168-0.834-0.384-1.181-0.648l0.011 0.008c-0.367-0.304-0.715-0.63-1.043-0.975l-0.030-0.031c-0.353-0.335-0.764-0.615-1.214-0.821l-0.028-0.011c-0.668-0.321-1.256-0.292-1.609 0.083-0.159 0.187-0.291 0.405-0.384 0.641l-0.005 0.016c-0.047 0.104-0.094 0.207-0.145 0.296-0.094 0.176-0.222 0.331-0.376 0.456-0.064 0.045-0.136 0.087-0.213 0.121l-0.008 0.003c-0.161 0.066-0.308 0.164-0.43 0.287-0.134 0.167-0.222 0.366-0.256 0.578-0.019 0.094-0.047 0.186-0.085 0.275-0.127 0.21-0.199 0.448-0.211 0.693 0.004 0.192 0.060 0.379 0.163 0.542-3.038-0.963-5.202-3.758-5.202-7.059 0-1.128 0.253-2.197 0.705-3.154l-0.019 0.045 0.020-0.044c0.077-0.198 0.184-0.369 0.317-0.514l-0.001 0.001c0.047-0.047 0.104-0.086 0.166-0.113l0.004-0.001c0.106-0.049 0.23-0.078 0.361-0.079h0.001c0.004-0 0.009-0 0.014-0 0.076 0 0.149 0.016 0.214 0.046l-0.003-0.001c0.099 0.051 0.17 0.142 0.192 0.252l0 0.002c0.023 0.237-0.022 0.475-0.128 0.687-0.168 0.333-0.207 0.716-0.108 1.077 0.177 0.463 0.671 0.658 1.031 0.764l0.053 0.015c0.286 0.046 0.551 0.179 0.758 0.38 0.094 0.159 0.153 0.336 0.175 0.52 0.033 0.219 0.1 0.431 0.198 0.629 0.29 0.518 0.887 0.699 1.422 0.828 0.575 0.14 1.151 0.282 1.728 0.428 0.116 0.038 0.241 0.036 0.356-0.005 0.132-0.053 0.229-0.17 0.251-0.311l0-0.002c0.060-0.401-0.493-0.883-0.503-0.889l-0.138-0.11c-0.328-0.258-0.638-0.502-0.638-0.872-0-0.002-0-0.005-0-0.008 0-0.157 0.093-0.293 0.226-0.355l0.002-0.001c0.099-0.041 0.182-0.011 0.374 0.079 0.053 0.024 0.105 0.050 0.153 0.070 0.075 0.041 0.164 0.065 0.259 0.065 0.144 0 0.274-0.055 0.372-0.146l-0 0c0.085-0.094 0.137-0.22 0.137-0.358 0-0.036-0.003-0.070-0.010-0.104l0.001 0.003c-0.043-0.352-0.026-0.499 0.151-0.613 0.192-0.105 0.401-0.179 0.616-0.215 0.152-0.032 0.302-0.073 0.45-0.123 0.417-0.169 0.777-0.376 1.103-0.625l-0.011 0.008c0.054-0.038 0.114-0.072 0.176-0.109 0.282-0.126 0.508-0.355 0.631-0.64 0.124-0.381-0.075-0.766-0.597-1.142-0.334-0.24-0.841-0.602-1.415-0.52-0.193 0.036-0.364 0.095-0.524 0.174l0.012-0.005c-0.104 0.049-0.212 0.088-0.322 0.119-0.028 0.007-0.061 0.011-0.095 0.011-0.080 0-0.154-0.022-0.218-0.061l0.002 0.001c-0.039-0.028-0.041-0.050-0.041-0.057-0.007-0.069 0.079-0.154 0.211-0.276 0.163-0.128 0.292-0.295 0.374-0.485 0.021-0.071 0.034-0.152 0.034-0.237 0-0.311-0.168-0.583-0.419-0.73l-0.004-0.002c-0.217-0.121-0.476-0.193-0.751-0.193-0.106 0-0.21 0.011-0.31 0.031l0.010-0.002c-0.097 0.012-0.21 0.019-0.324 0.019-0.019 0-0.038-0-0.057-0.001l0.003 0c-0.33-0.019-0.628-0.146-0.86-0.346l0.002 0.002c0.487-0.114 1.045-0.18 1.62-0.18 4.074 0 7.376 3.302 7.376 7.376 0 2.207-0.969 4.187-2.505 5.539l-0.008 0.007z"></path>
</symbol>
</defs>
</svg>
